<?xml version="1.0" standalone="no"?>
<!DOCTYPE svg PUBLIC "-//W3C//DTD SVG 20010904//EN"
 "http://www.w3.org/TR/2001/REC-SVG-20010904/DTD/svg10.dtd">
<svg version="1.0" xmlns="http://www.w3.org/2000/svg"
 width="700.000000pt" height="700.000000pt" viewBox="0 0 700.000000 700.000000"
 preserveAspectRatio="xMidYMid meet">
<metadata>
Created by potrace 1.14, written by Peter Selinger 2001-2017
</metadata>
<g transform="translate(0.000000,700.000000) scale(0.100000,-0.100000)"
fill="#000000" stroke="none">
<path d="M3215 6994 c-790 -78 -1465 -366 -2035 -870 -640 -565 -1027 -1295
-1157 -2179 -25 -173 -25 -717 0 -890 107 -731 373 -1320 839 -1860 494 -571
1198 -981 1943 -1129 274 -54 348 -61 690 -61 342 0 395 4 668 56 584 110
1127 368 1592 758 603 505 1031 1228 1179 1989 55 283 61 346 61 692 0 348 -7
419 -61 695 -153 767 -576 1481 -1179 1986 -518 434 -1119 699 -1800 795 -114
16 -633 28 -740 18z m350 -586 c0 -134 5 -141 106 -146 39 -3 75 0 80 5 6 6
13 32 17 59 6 40 11 49 27 49 17 0 20 -8 23 -61 2 -33 -2 -73 -8 -88 l-10 -28
-133 7 c-72 4 -138 12 -144 17 -9 7 -13 42 -13 106 0 126 -5 132 -115 132 -94
0 -95 -1 -95 -81 0 -45 -2 -49 -24 -49 -21 0 -24 6 -30 53 -10 86 -7 115 12
126 10 6 76 10 162 8 l145 -2 0 -107z m349 82 c60 -13 61 -18 41 -125 -17 -91
-17 -96 0 -115 18 -20 35 -25 122 -35 l51 -7 17 57 c12 43 20 56 33 53 31 -6
27 -118 -6 -159 l-18 -21 -89 17 c-174 34 -180 36 -183 73 -2 18 4 64 13 103
24 106 11 119 -111 119 -81 0 -80 1 -86 -79 -3 -36 -14 -46 -35 -33 -21 13
-36 112 -23 146 l11 29 112 -7 c62 -4 129 -11 151 -16z m-758 -2 c4 -7 11 -57
15 -112 9 -131 27 -145 158 -114 l51 11 0 59 c0 54 1 58 24 58 27 0 36 -29 36
-109 0 -75 -2 -76 -154 -79 -130 -3 -134 -3 -150 19 -10 16 -16 45 -16 85 0
33 -5 75 -11 92 -14 41 -53 48 -139 24 l-65 -18 4 -34 c9 -73 7 -85 -14 -88
-17 -2 -24 10 -45 74 l-25 76 23 18 c13 11 48 21 80 25 31 4 68 10 82 15 39
13 138 12 146 -2z m1108 -72 c62 -14 104 -29 110 -39 8 -13 4 -37 -17 -96 -36
-101 -34 -130 14 -153 19 -10 57 -19 84 -20 l49 -3 17 45 c13 36 21 45 40 45
20 0 23 -4 20 -25 -7 -51 -42 -129 -61 -135 -11 -3 -54 5 -97 18 -43 14 -92
28 -109 31 -18 4 -40 16 -50 27 -18 20 -18 23 4 107 27 108 27 118 -1 136 -24
16 -156 50 -164 42 -3 -2 -10 -26 -17 -53 -8 -32 -18 -49 -30 -51 -16 -3 -17
2 -11 55 4 32 14 69 22 82 17 27 29 26 197 -13z m-1506 -4 c12 -12 23 -47 31
-94 20 -122 38 -134 154 -101 l59 16 -6 57 c-7 57 0 70 33 70 10 0 31 -92 31
-135 0 -42 -13 -52 -80 -60 -30 -4 -83 -13 -118 -21 -87 -21 -103 -10 -127 88
-27 113 -30 118 -66 118 -43 0 -140 -31 -146 -47 -3 -7 2 -34 11 -60 13 -37
13 -48 4 -55 -25 -16 -40 -2 -64 56 -39 96 -35 103 61 131 33 9 85 25 115 35
73 23 87 23 108 2z m1826 -73 c122 -38 156 -54 156 -76 0 -9 -18 -56 -41 -105
-38 -82 -40 -91 -26 -111 8 -13 45 -35 83 -50 75 -30 71 -31 106 32 20 36 58
43 58 11 0 -56 -58 -141 -94 -139 -12 0 -66 24 -121 52 -75 39 -101 57 -103
74 -2 12 13 55 32 96 44 90 45 112 9 130 -46 23 -145 49 -154 40 -5 -5 -15
-26 -22 -48 -14 -39 -40 -56 -58 -38 -10 10 16 130 33 150 15 19 28 17 142
-18z m-2184 -131 c39 -96 54 -118 81 -118 28 0 149 52 149 64 0 6 -7 29 -15
51 -12 36 -12 41 3 53 24 19 27 16 56 -47 43 -97 37 -111 -64 -137 -34 -9 -83
-24 -107 -35 -80 -34 -91 -25 -134 99 -20 58 -44 92 -64 92 -10 0 -141 -65
-154 -76 -3 -2 6 -27 19 -55 20 -43 22 -52 10 -59 -8 -6 -18 -9 -22 -7 -14 4
-88 111 -88 127 0 26 29 47 115 81 43 18 90 38 104 46 55 29 73 16 111 -79z
m2595 -59 c50 -28 97 -54 105 -58 30 -16 21 -48 -28 -113 -82 -107 -80 -127
24 -179 l66 -34 16 25 c10 13 26 35 37 48 18 20 22 21 39 9 19 -14 18 -17 -25
-78 -52 -74 -79 -84 -125 -46 -16 13 -57 40 -90 60 -34 20 -67 44 -74 52 -13
16 -6 34 71 172 24 41 24 41 4 63 -22 24 -126 80 -148 80 -8 0 -25 -20 -38
-45 -23 -43 -59 -62 -59 -31 0 24 38 104 59 125 25 25 37 22 166 -50z m-2983
-16 c9 -10 29 -48 46 -85 17 -37 41 -74 56 -83 24 -16 28 -16 96 16 78 35 78
36 49 106 -11 26 -11 35 -1 45 19 19 41 0 76 -66 23 -44 27 -62 20 -74 -17
-27 -236 -134 -254 -124 -8 5 -38 47 -66 93 -46 75 -54 84 -79 82 -31 -2 -134
-61 -142 -81 -3 -7 7 -31 21 -53 22 -32 25 -43 15 -55 -19 -23 -32 -16 -66 34
-52 76 -59 100 -40 119 25 25 220 142 238 142 9 1 23 -7 31 -16z m3327 -177
c57 -43 97 -82 99 -94 2 -13 -17 -42 -57 -87 -33 -36 -63 -74 -66 -85 -9 -29
9 -54 71 -95 l56 -37 38 37 c36 35 69 43 77 19 5 -14 -82 -111 -107 -119 -27
-8 -53 8 -137 83 -47 42 -73 73 -73 87 0 11 25 50 55 85 61 72 75 104 54 125
-8 8 -42 30 -77 49 l-63 35 -19 -22 c-10 -12 -27 -32 -37 -45 -19 -25 -53 -22
-53 4 0 21 39 95 64 122 31 35 64 23 175 -62z m-2053 30 c3 -8 -8 -40 -24 -72
-16 -33 -39 -88 -52 -124 -13 -36 -31 -70 -39 -77 -19 -15 -51 -17 -51 -3 0
15 46 149 68 202 32 74 83 112 98 74z m162 5 c19 -12 -111 -258 -145 -274 -48
-22 -47 4 8 127 60 135 96 174 137 147z m170 -7 c2 -1 -21 -47 -52 -101 -30
-54 -61 -110 -69 -124 -15 -28 -65 -45 -82 -28 -15 15 103 237 135 254 21 12
55 11 68 -1z m136 0 c9 -3 16 -11 16 -16 0 -6 -34 -61 -75 -123 -59 -89 -81
-114 -102 -118 -16 -3 -32 -2 -36 3 -13 12 121 228 152 245 32 17 26 16 45 9z
m-621 -10 c17 -6 18 -5 -41 -167 -37 -101 -60 -136 -89 -137 -21 0 -22 15 -2
85 42 151 60 195 87 210 33 17 27 16 45 9z m781 -24 c-1 -8 -33 -60 -73 -115
-73 -101 -115 -135 -147 -117 -13 7 -3 27 57 116 39 59 81 114 93 122 26 18
71 15 70 -6z m-1932 -45 c55 -72 51 -99 -26 -142 -32 -18 -71 -44 -88 -58 -64
-54 -90 -45 -159 57 -43 63 -68 81 -96 71 -29 -10 -123 -93 -123 -108 0 -8 14
-30 31 -50 30 -34 34 -65 7 -65 -21 0 -128 100 -128 119 0 20 26 45 120 118
83 63 107 76 124 66 8 -4 38 -39 67 -78 59 -79 66 -85 95 -85 28 0 134 77 134
98 0 9 -9 28 -20 42 -20 26 -25 51 -13 64 15 14 39 -1 75 -49z m1008 20 c0 -8
-13 -57 -30 -108 -16 -50 -34 -111 -40 -134 -6 -24 -18 -47 -28 -52 -23 -12
-52 9 -47 35 39 169 58 231 77 251 24 26 68 31 68 8z m1095 5 c7 -11 -43 -74
-138 -174 -43 -45 -59 -56 -85 -56 -18 0 -32 4 -32 10 0 13 157 207 178 220
23 13 69 13 77 0z m-1250 -30 c3 -5 -3 -44 -14 -87 -11 -43 -23 -102 -27 -131
-7 -57 -33 -92 -66 -92 -22 0 -22 6 2 155 17 104 23 123 45 143 28 23 50 28
60 12z m1394 1 c12 -8 -4 -30 -74 -106 -49 -54 -99 -104 -112 -112 -24 -16
-73 -11 -73 7 0 12 141 172 177 200 27 21 59 26 82 11z m-1562 -93 c-25 -203
-45 -268 -84 -268 -16 0 -16 22 -2 165 10 96 14 113 36 133 13 12 31 22 40 22
13 0 15 -9 10 -52z m1722 38 c9 -11 -10 -32 -92 -104 -102 -89 -140 -111 -173
-98 -13 5 1 24 62 89 43 45 92 92 108 105 34 25 78 29 95 8z m-1862 -93 c-4
-32 -10 -94 -13 -138 -7 -81 -25 -125 -50 -125 -11 0 -14 27 -14 137 0 127 2
138 22 160 12 13 30 23 41 23 18 0 19 -5 14 -57z m2002 38 c7 -5 12 -14 10
-20 -7 -20 -223 -181 -244 -181 -11 0 -27 5 -35 10 -12 9 -2 23 55 77 122 115
171 141 214 114z m1113 -78 c51 -48 97 -93 101 -100 12 -20 -1 -49 -30 -68
-14 -10 -46 -36 -70 -58 -59 -54 -57 -77 9 -144 29 -29 56 -53 61 -53 5 0 27
14 48 31 39 31 69 33 69 6 0 -8 -22 -35 -50 -61 -66 -62 -98 -63 -141 -3 -16
23 -53 61 -80 85 -70 62 -68 82 22 165 l70 65 -15 30 c-8 16 -36 48 -62 71
-52 45 -60 45 -108 -9 l-28 -32 -21 21 -21 21 24 27 c68 78 86 93 107 93 15 0
55 -30 115 -87z m-3912 -94 c0 -11 -12 -30 -26 -42 -15 -12 -57 -50 -95 -84
-39 -37 -77 -63 -90 -63 -13 0 -49 28 -93 70 -40 39 -80 70 -88 70 -22 0 -128
-98 -128 -119 0 -9 16 -29 35 -44 37 -29 43 -45 23 -65 -9 -9 -20 -6 -47 15
-51 37 -101 85 -101 96 0 19 199 207 219 207 11 0 37 -19 58 -42 107 -119 122
-123 200 -46 29 29 53 56 53 61 0 5 -13 25 -30 44 -35 39 -37 48 -12 62 14 9
26 1 70 -45 28 -30 52 -64 52 -75z m2951 115 c12 -15 11 -19 -11 -35 -206
-149 -238 -166 -271 -148 l-23 12 39 34 c55 48 177 139 195 146 29 11 58 7 71
-9z m-2300 -144 c-3 -146 -9 -170 -41 -170 -24 0 -30 28 -30 158 0 125 14 166
54 160 20 -3 21 -7 17 -148z m-127 74 c3 -9 6 -73 6 -143 0 -98 -3 -131 -16
-149 -8 -12 -21 -22 -28 -22 -16 0 -22 36 -32 171 -5 78 -4 101 10 127 18 34
50 43 60 16z m2555 -8 c10 -12 -6 -25 -90 -73 -56 -32 -116 -66 -133 -76 -36
-20 -71 -19 -71 3 0 8 48 47 108 87 111 76 160 91 186 59z m135 -75 c17 -19
15 -21 -71 -67 -48 -26 -104 -58 -123 -71 -39 -26 -92 -30 -109 -9 -9 11 12
28 111 90 128 79 163 90 192 57z m-2830 -23 c16 -101 27 -241 22 -263 -5 -18
-13 -25 -30 -25 -28 0 -28 0 -51 152 -13 86 -14 111 -4 130 25 48 56 51 63 6z
m3803 -125 c44 -54 82 -103 86 -110 13 -21 -4 -41 -67 -82 -35 -23 -73 -52
-86 -66 -23 -24 -23 -26 -8 -59 22 -44 76 -106 95 -106 8 0 32 10 53 22 32 19
42 20 52 10 18 -18 2 -40 -57 -80 -60 -41 -92 -39 -120 6 -11 18 -41 60 -67
94 -27 33 -48 69 -48 78 0 21 45 62 113 105 55 34 67 63 42 102 -17 25 -92
103 -99 103 -2 0 -23 -16 -45 -35 -40 -32 -71 -37 -71 -11 0 7 23 38 51 69 71
80 80 78 176 -40z m-3937 55 c0 -13 10 -78 22 -145 21 -119 21 -123 3 -143
-33 -37 -37 -31 -66 109 -23 114 -24 159 -2 183 22 25 43 23 43 -4z m3098 -9
c2 -10 -9 -22 -30 -32 -237 -110 -235 -109 -269 -91 -32 16 -32 17 -13 31 10
9 64 37 119 64 79 38 109 48 145 46 32 -1 46 -7 48 -18z m-3694 -40 c31 -28
56 -59 56 -70 0 -27 -150 -189 -176 -189 -12 0 -52 24 -90 54 -74 59 -108 74
-130 55 -16 -13 -84 -125 -84 -138 0 -4 20 -22 45 -39 40 -28 44 -35 35 -52
-10 -19 -13 -19 -81 15 -74 38 -95 65 -76 100 18 36 147 193 163 199 20 8 44
-5 105 -60 90 -79 111 -79 179 8 l40 50 -41 45 c-33 36 -38 47 -29 59 18 21
23 19 84 -37z m493 -139 c35 -159 37 -178 23 -195 -25 -31 -39 -15 -69 78 -41
128 -48 188 -26 211 34 34 47 17 72 -94z m3318 84 c14 -14 14 -19 3 -30 -21
-20 -227 -94 -263 -94 -28 0 -66 24 -54 34 10 9 81 42 154 72 89 37 136 42
160 18z m-3410 -205 c40 -119 45 -145 36 -166 -8 -17 -18 -23 -33 -21 -18 2
-29 24 -65 128 -24 71 -40 134 -37 145 5 17 39 55 49 55 2 0 24 -63 50 -141z
m3525 115 c21 -20 6 -29 -99 -59 -51 -14 -113 -35 -137 -47 -41 -19 -46 -19
-69 -4 -32 21 -32 32 3 44 241 92 268 98 302 66z m858 -199 c41 -62 71 -119
70 -130 -2 -14 -27 -32 -84 -60 -96 -47 -114 -61 -114 -87 0 -28 62 -138 77
-138 7 0 28 7 47 16 37 18 66 13 66 -10 0 -22 -99 -76 -138 -76 -31 0 -35 4
-59 58 -15 31 -42 83 -61 115 -32 56 -33 59 -16 78 9 10 51 37 93 60 42 22 79
46 82 51 11 18 -8 66 -46 118 -20 28 -40 50 -44 50 -3 0 -23 -11 -43 -25 -20
-14 -43 -25 -51 -25 -23 0 -29 31 -10 47 43 33 120 73 138 71 13 -2 45 -41 93
-113z m-5015 72 c75 -48 82 -59 62 -94 -32 -56 -120 -177 -136 -186 -12 -8
-35 -1 -90 28 -41 21 -82 43 -91 49 -33 20 -68 -5 -108 -75 -21 -37 -35 -71
-31 -76 3 -6 25 -20 48 -32 50 -25 56 -33 40 -55 -13 -18 -26 -15 -124 31 -48
22 -43 51 27 168 33 55 64 107 69 115 16 29 48 21 122 -29 89 -61 118 -64 152
-18 27 35 57 91 57 105 0 4 -21 23 -46 40 -38 27 -44 35 -34 47 17 21 24 19
83 -18z m487 -24 c11 -32 35 -93 52 -135 30 -75 31 -77 14 -103 -11 -16 -21
-24 -27 -18 -15 15 -109 234 -109 255 0 27 18 58 35 58 7 0 23 -25 35 -57z
m3762 25 c20 -20 20 -22 3 -35 -11 -7 -33 -13 -49 -13 -17 0 -73 -11 -125 -24
-74 -20 -98 -22 -118 -13 -47 21 -23 41 92 74 132 38 168 40 197 11z m-3832
-188 c23 -52 46 -99 51 -104 15 -16 10 -59 -10 -85 l-18 -23 -40 73 c-84 154
-98 206 -66 241 23 26 33 14 83 -102z m3951 82 c41 -34 20 -47 -112 -71 -140
-25 -204 -20 -204 14 0 16 17 24 110 47 132 32 175 34 206 10z m-4027 -226
c31 -60 56 -118 56 -130 0 -21 -17 -46 -31 -46 -8 0 -86 124 -118 187 -25 51
-26 71 -5 102 22 30 27 24 98 -113z m4106 109 c37 -19 41 -55 8 -55 -13 0 -66
-5 -118 -12 -143 -16 -200 -9 -200 27 0 15 16 19 155 41 108 16 121 16 155 -1z
m-4640 -103 c68 -34 73 -55 31 -120 -16 -26 -38 -67 -49 -92 -28 -65 -42 -75
-89 -60 -21 7 -59 23 -85 36 -61 31 -101 31 -116 2 -20 -39 -52 -140 -47 -148
3 -5 28 -16 55 -25 49 -16 58 -27 42 -52 -10 -15 -118 5 -155 30 -29 19 -29
21 22 152 43 109 54 129 74 133 9 2 52 -13 95 -32 90 -41 121 -44 146 -17 15
17 56 114 56 133 0 5 -20 18 -45 30 -26 13 -45 29 -45 38 0 37 21 36 110 -8z
m5337 11 c9 -14 27 -49 39 -77 12 -28 32 -74 45 -103 29 -66 23 -73 -80 -108
-93 -30 -121 -49 -121 -78 0 -21 54 -147 63 -147 3 0 24 7 48 15 49 18 69 14
69 -13 0 -26 -88 -64 -138 -60 -37 3 -37 3 -59 80 -12 42 -29 90 -37 107 -34
64 -17 86 94 122 73 24 100 43 100 72 0 27 -70 137 -87 137 -7 0 -30 -7 -50
-15 -20 -9 -43 -13 -50 -11 -15 6 -18 36 -4 36 5 0 28 16 51 35 52 44 92 47
117 8z m-2582 -12 c267 -31 447 -76 601 -151 332 -161 558 -466 646 -873 30
-138 32 -455 5 -591 -56 -275 -160 -476 -347 -670 -186 -192 -414 -311 -714
-371 -211 -42 -283 -45 -1031 -45 l-715 0 0 29 0 28 98 6 c53 3 115 11 137 19
57 18 130 92 147 148 10 36 13 248 13 1115 0 1012 -1 1073 -18 1130 -26 81
-48 109 -115 142 -49 24 -71 28 -164 32 l-108 3 0 35 0 35 733 -5 c463 -3 769
-9 832 -16z m-2309 -138 c64 -110 78 -158 44 -158 -16 0 -86 99 -136 190 -28
52 -28 53 -9 81 15 23 20 25 27 14 5 -8 38 -65 74 -127z m4284 111 c19 -19 21
-27 11 -33 -7 -4 -76 -11 -153 -15 -124 -6 -142 -5 -159 10 -35 32 -23 41 69
51 48 6 114 11 148 12 53 1 63 -2 84 -25z m80 -124 c11 -11 20 -27 20 -35 0
-23 -296 -22 -322 2 -45 41 -22 47 190 51 80 2 95 -1 112 -18z m-4440 -100
c74 -107 92 -152 71 -173 -14 -14 -39 10 -117 113 -62 82 -74 113 -58 154 12
31 30 14 104 -94z m4490 -28 c23 -11 36 -25 38 -41 4 -23 2 -23 -50 -18 -29 4
-96 9 -148 13 -76 5 -99 10 -117 27 -13 11 -23 24 -23 29 0 4 60 8 133 8 106
0 139 -4 167 -18z m-4595 -59 c27 -37 67 -87 87 -111 37 -42 46 -74 29 -100
-6 -10 -34 15 -105 94 -93 104 -106 127 -90 168 11 29 29 17 79 -51z m-364
-10 c19 -18 18 -21 -17 -131 -19 -62 -42 -119 -51 -128 -18 -17 -53 -14 -161
16 -58 16 -64 16 -82 1 -22 -18 -57 -138 -47 -163 3 -9 21 -19 39 -23 59 -12
68 -16 68 -34 0 -10 -2 -20 -5 -23 -5 -5 -93 6 -142 17 -31 7 -30 44 2 160 14
49 25 99 25 111 0 11 9 29 20 39 20 18 23 17 99 -8 91 -31 132 -34 154 -9 16
18 49 131 41 143 -2 4 -27 15 -54 24 -35 12 -50 22 -50 34 0 10 3 20 6 23 10
11 136 -29 155 -49z m5585 -8 c16 -25 60 -171 70 -235 8 -47 -6 -57 -93 -70
-132 -18 -147 -37 -115 -141 l20 -64 63 0 c51 0 64 -3 67 -16 3 -17 -26 -26
-126 -43 -47 -8 -69 18 -77 91 -3 32 -11 71 -16 87 -5 16 -9 46 -9 68 0 45 5
47 120 74 91 20 100 27 100 70 0 47 -46 148 -64 141 -65 -25 -98 -30 -107 -16
-15 24 -5 33 62 56 82 28 85 28 105 -2z m-693 -35 c132 -10 167 -24 167 -67 0
-24 -2 -25 -37 -20 -21 4 -85 12 -143 18 -112 12 -150 27 -150 59 0 23 -2 23
163 10z m-4610 -40 c8 -12 45 -53 81 -92 77 -81 90 -106 75 -145 l-11 -28 -98
102 c-101 106 -112 124 -99 161 10 28 33 28 52 2z m4741 -103 c45 -9 64 -19
80 -40 35 -47 14 -51 -135 -26 -112 20 -138 27 -156 48 -13 13 -23 28 -23 34
0 12 147 2 234 -16z m-4721 -116 c81 -82 97 -103 97 -130 0 -17 -5 -31 -10
-31 -10 0 -184 151 -207 180 -13 16 -17 62 -6 73 15 16 34 2 126 -92z m4664
-11 c149 -29 172 -37 184 -68 17 -45 -1 -46 -143 -11 -137 34 -168 49 -168 81
0 22 -4 22 127 -2z m-5094 -31 c20 -9 27 -19 27 -42 0 -32 -38 -225 -47 -240
-5 -9 -49 -7 -180 9 -75 9 -83 0 -83 -101 l0 -83 55 -4 c64 -5 69 -9 60 -38
-7 -21 -12 -22 -86 -18 -43 2 -84 9 -90 15 -10 10 -9 38 1 130 7 65 17 129 22
142 9 26 5 26 179 5 54 -6 58 -5 75 21 12 18 18 47 18 93 l1 65 -48 13 c-58
15 -59 16 -51 39 6 15 16 17 63 12 31 -3 68 -11 84 -18z m364 -73 c39 -35 88
-76 107 -91 29 -22 36 -34 36 -61 0 -18 -3 -35 -8 -38 -8 -5 -88 53 -175 128
-47 40 -57 54 -57 81 0 30 6 45 19 45 3 0 38 -29 78 -64z m5451 56 c13 -9 41
-139 49 -234 6 -70 1 -73 -122 -81 -113 -8 -131 -23 -121 -104 3 -28 10 -63
16 -78 9 -24 13 -25 58 -19 38 5 51 3 62 -11 12 -15 12 -19 -3 -30 -25 -18
-118 -28 -149 -16 -14 5 -28 16 -31 25 -4 9 -7 68 -8 133 -1 139 -2 139 109
147 113 9 126 15 130 56 2 19 -2 60 -9 93 l-13 58 -65 -3 c-55 -3 -66 0 -69
14 -2 13 11 22 60 37 71 22 87 24 106 13z m-653 -94 c114 -31 165 -60 165 -94
0 -26 -23 -24 -152 17 -127 40 -168 63 -168 95 0 21 27 17 155 -18z m-4857
-92 c32 -24 83 -62 114 -84 60 -44 77 -74 58 -97 -10 -12 -28 -3 -114 55 -131
89 -141 100 -137 153 2 26 18 21 79 -27z m4867 -52 c120 -40 155 -63 155 -104
l0 -27 -132 48 c-127 46 -168 72 -168 105 0 21 25 17 145 -22z m-4884 -92 c30
-21 82 -55 116 -76 68 -42 96 -87 66 -105 -17 -9 -70 18 -200 101 -64 41 -79
63 -68 98 9 28 24 25 86 -18z m-344 2 c12 -3 24 -12 27 -20 11 -29 -7 -245
-21 -260 -11 -10 -42 -14 -117 -14 -81 0 -106 -3 -116 -15 -13 -16 -16 -157
-4 -176 3 -5 32 -9 65 -9 57 0 60 -1 57 -22 -3 -21 -11 -24 -81 -32 -110 -13
-112 -11 -113 152 -1 70 3 135 9 146 8 17 18 18 100 13 90 -5 134 3 149 26 4
7 8 44 8 83 0 79 -4 84 -63 84 -41 0 -62 14 -54 34 5 12 21 16 69 16 35 0 73
-3 85 -6z m5301 -73 c82 -32 102 -50 102 -92 0 -25 6 -27 -150 36 -63 26 -123
54 -132 62 -18 16 -24 44 -12 56 6 6 61 -12 192 -62z m633 2 c17 -19 22 -257
6 -287 -8 -17 -18 -18 -100 -13 -90 5 -134 -3 -149 -26 -4 -7 -8 -44 -8 -83 0
-79 4 -84 63 -84 41 0 62 -14 54 -34 -5 -12 -21 -16 -69 -16 -75 0 -105 7
-112 26 -11 29 7 245 21 260 11 10 42 14 117 14 81 0 106 3 116 15 13 16 16
157 4 176 -3 5 -32 9 -65 9 -57 0 -60 1 -57 23 2 17 11 23 43 28 79 12 122 10
136 -8z m-5526 -133 c86 -52 115 -78 115 -102 0 -26 -16 -23 -100 21 -171 87
-194 109 -176 158 7 16 17 11 161 -77z m4874 -1 c112 -53 130 -69 131 -112 0
-35 -6 -34 -155 41 -116 58 -134 73 -135 111 0 20 3 22 28 16 15 -3 74 -29
131 -56z m-4911 -131 c64 -33 125 -68 135 -76 20 -17 23 -52 5 -52 -27 0 -244
101 -260 121 -19 23 -24 69 -8 69 6 0 63 -28 128 -62z m4862 19 c47 -24 104
-55 127 -70 47 -30 65 -70 42 -93 -12 -12 -29 -5 -119 51 -58 36 -113 69 -123
75 -29 17 -43 80 -18 80 4 0 45 -19 91 -43z m-5223 -63 c9 -12 13 -56 13 -141
0 -144 4 -139 -121 -149 -46 -4 -92 -11 -101 -16 -22 -11 -23 -59 -6 -136 l13
-53 65 3 c54 3 65 0 68 -14 2 -13 -12 -21 -63 -37 -75 -23 -84 -24 -104 -12
-15 10 -38 121 -48 228 -6 75 -3 78 122 86 125 9 143 32 112 152 l-13 50 -53
0 c-39 0 -56 5 -64 17 -14 22 -9 27 44 38 60 12 121 5 136 -16z m376 -99 c112
-54 138 -70 143 -91 8 -32 2 -37 -27 -25 -13 6 -72 29 -132 51 -63 25 -111 49
-117 60 -9 17 -14 70 -7 70 2 0 65 -29 140 -65z m4954 -65 c34 -22 60 -100 33
-100 -5 0 -62 34 -126 76 -113 75 -143 107 -131 138 5 13 25 4 104 -42 54 -32
108 -65 120 -72z m566 99 c44 -12 44 -12 22 -173 -8 -66 -20 -115 -29 -124
-13 -13 -25 -13 -106 0 -51 9 -100 13 -110 11 -25 -7 -50 -73 -50 -133 0 -49
0 -49 38 -56 55 -10 71 -21 65 -44 -6 -23 -21 -24 -94 -9 -70 15 -89 36 -79
85 4 22 15 75 24 119 22 111 25 113 134 92 109 -21 117 -21 136 -1 12 11 16
36 16 95 0 87 2 85 -80 91 -27 2 -35 7 -35 23 0 16 9 21 45 26 25 3 50 7 55 7
6 1 27 -3 48 -9z m-733 -130 c87 -53 198 -140 203 -160 7 -28 -10 -61 -28 -57
-28 6 -223 164 -229 185 -6 22 1 53 13 53 3 0 22 -10 41 -21z m-4715 -71 c33
-11 70 -30 83 -41 24 -22 30 -57 10 -57 -22 0 -232 71 -255 86 -28 18 -46 51
-39 70 4 11 18 9 73 -12 37 -14 95 -35 128 -46z m4744 -125 c47 -37 96 -78
109 -90 25 -25 31 -83 8 -83 -8 0 -48 28 -89 63 -40 35 -88 74 -105 86 -25 18
-32 30 -32 57 0 19 5 34 11 34 6 0 50 -30 98 -67z m-5149 25 c8 -20 22 -96 37
-211 3 -23 0 -44 -6 -50 -6 -7 -55 -23 -109 -37 -97 -25 -97 -25 -100 -58 -3
-33 22 -117 42 -139 9 -10 23 -9 64 4 46 15 54 15 62 3 6 -8 8 -19 7 -24 -5
-16 -137 -67 -157 -61 -28 9 -76 151 -87 257 -5 55 1 60 97 73 76 10 118 29
125 57 3 13 -3 50 -13 83 l-18 60 -62 -2 c-35 -2 -63 2 -63 7 -1 6 -2 15 -3
22 -1 15 73 36 132 37 35 1 44 -3 52 -21z m370 -22 c110 -35 138 -48 150 -69
8 -14 12 -29 9 -32 -7 -7 -166 28 -229 50 -24 8 -52 23 -62 32 -18 16 -25 63
-10 63 4 0 68 -20 142 -44z m5438 -61 c30 -7 29 -44 -3 -160 -14 -49 -25 -99
-25 -111 0 -11 -9 -29 -20 -39 -20 -18 -23 -17 -99 8 -92 32 -132 34 -154 9
-17 -19 -50 -130 -42 -143 3 -4 28 -15 55 -24 51 -17 55 -21 44 -48 -5 -13
-14 -13 -71 3 -36 10 -74 27 -85 37 -19 19 -18 21 17 131 35 109 54 142 78
142 7 0 49 -9 95 -20 46 -11 92 -20 103 -20 26 0 60 76 62 138 2 48 0 50 -75
66 -26 6 -38 33 -23 48 5 5 93 -6 143 -17z m-640 -121 c74 -72 89 -107 59
-133 -11 -8 -37 13 -120 98 -104 105 -121 133 -96 158 13 13 39 -7 157 -123z
m-4781 41 c54 -14 108 -25 121 -25 23 0 72 -40 72 -60 0 -15 -43 -12 -168 11
-117 22 -162 44 -162 80 0 25 18 24 137 -6z m4696 -151 c98 -107 112 -135 87
-174 -7 -11 -19 -3 -57 40 -26 30 -72 80 -100 112 -38 41 -53 66 -53 86 0 28
7 42 20 42 4 0 50 -48 103 -106z m-4631 13 c125 -23 168 -42 168 -73 0 -14
-28 -13 -190 8 -74 9 -88 14 -112 40 -27 29 -29 48 -5 48 7 0 69 -11 139 -23z
m-354 -92 c8 -27 23 -72 34 -100 32 -79 33 -100 7 -119 -13 -8 -53 -25 -89
-37 -73 -24 -100 -43 -100 -72 0 -27 70 -137 87 -137 7 0 30 7 50 15 20 9 43
13 50 11 15 -6 18 -36 4 -36 -5 0 -28 -16 -51 -35 -74 -62 -106 -48 -156 69
-12 28 -32 74 -45 103 -29 66 -23 73 80 108 93 30 121 49 121 78 0 21 -54 147
-63 147 -3 0 -24 -7 -48 -15 -49 -18 -69 -14 -69 13 0 27 82 63 135 59 38 -2
40 -3 53 -52z m4946 -59 c89 -107 102 -140 70 -167 -15 -12 -21 -9 -48 25 -17
22 -57 70 -88 108 -55 66 -72 111 -51 131 17 17 38 0 117 -97z m-4482 5 c77
-7 118 -27 118 -58 0 -16 -28 -16 -175 -3 -89 9 -114 15 -132 32 -43 40 -31
52 45 44 37 -4 102 -11 144 -15z m5082 4 c50 -8 106 -35 106 -52 0 -12 -73
-203 -89 -232 -18 -34 -38 -36 -103 -7 -107 48 -131 55 -151 44 -18 -9 -77
-124 -77 -148 0 -6 20 -20 45 -32 35 -17 45 -27 43 -43 -4 -27 -37 -23 -108
13 -66 33 -73 56 -36 113 15 21 37 63 49 91 33 73 46 83 94 68 21 -7 59 -23
85 -36 61 -31 101 -31 116 -1 20 38 52 139 47 147 -3 5 -28 16 -55 25 -28 9
-50 20 -50 25 0 22 14 40 29 36 9 -2 33 -7 55 -11z m-687 -118 c82 -108 93
-128 93 -160 0 -22 -25 -56 -34 -46 -54 66 -156 229 -156 249 0 20 15 50 26
50 1 0 33 -42 71 -93z m-4260 -13 c22 -4 53 -29 53 -43 0 -15 -275 -24 -302
-10 -27 14 -38 28 -38 50 0 14 16 15 133 12 72 -2 142 -6 154 -9z m4201 -128
c80 -119 86 -134 73 -170 -16 -42 -36 -31 -75 42 -21 37 -53 89 -72 117 -19
27 -34 59 -34 70 0 21 17 45 31 45 5 0 39 -47 77 -104z m-4661 -23 c15 -32 42
-84 61 -116 32 -56 33 -59 16 -78 -9 -10 -51 -37 -93 -60 -42 -22 -79 -46 -82
-51 -11 -18 8 -66 46 -118 38 -52 46 -54 97 -18 33 23 54 23 62 1 8 -20 -14
-39 -90 -79 -28 -15 -58 -25 -67 -21 -24 9 -151 208 -151 237 -1 22 10 31 80
65 96 47 114 61 114 87 0 28 -62 138 -77 138 -7 0 -28 -7 -47 -16 -37 -18 -66
-13 -66 10 0 22 99 76 138 76 31 0 35 -4 59 -57z m565 10 c33 -29 21 -40 -49
-46 -103 -10 -232 -8 -254 3 -19 10 -26 40 -12 53 3 4 72 7 151 7 121 0 148
-3 164 -17z m4006 -85 c81 -133 95 -168 83 -201 -19 -50 -41 -29 -108 102 -35
68 -63 128 -63 134 0 9 29 47 35 47 1 0 25 -37 53 -82z m668 16 c93 -38 104
-46 104 -71 0 -20 -42 -101 -127 -240 -20 -34 -48 -28 -126 27 -86 60 -116 64
-150 18 -27 -36 -57 -92 -57 -106 0 -4 21 -23 46 -41 43 -30 45 -34 31 -49
-15 -14 -19 -14 -53 4 -20 10 -52 33 -72 50 l-36 31 20 30 c64 100 113 170
128 183 16 13 28 9 113 -34 118 -61 130 -58 183 35 21 37 35 71 31 76 -3 6
-22 18 -41 28 -55 27 -61 35 -49 56 12 23 8 23 55 3z m-4599 -58 c15 -13 25
-27 22 -30 -10 -10 -143 -26 -225 -26 -68 0 -84 3 -103 21 -39 36 -23 44 110
49 68 3 134 7 146 8 12 1 35 -9 50 -22z m3862 -122 c53 -104 62 -152 36 -174
-22 -19 -29 -9 -86 121 -53 120 -59 149 -39 174 16 20 21 13 89 -121z m-3765
14 c9 -12 12 -26 8 -30 -10 -10 -187 -40 -248 -42 -38 -1 -57 4 -73 18 -32 29
-26 44 22 50 23 3 71 9 107 14 122 17 167 15 184 -10z m3673 -128 c23 -58 43
-117 43 -131 0 -23 -34 -68 -44 -58 -10 10 -96 260 -96 278 0 11 7 27 17 36
20 21 20 21 80 -125z m-4242 52 c11 -18 41 -60 68 -94 26 -33 47 -68 47 -77 0
-21 -38 -57 -112 -105 -77 -50 -78 -72 -3 -149 30 -31 56 -57 59 -57 2 0 23
16 45 35 40 32 71 37 71 11 0 -7 -23 -38 -51 -69 -71 -80 -80 -78 -176 41 -44
53 -82 102 -86 109 -13 21 4 41 67 82 35 23 73 52 86 66 23 24 23 26 8 59 -22
44 -76 106 -95 106 -8 0 -32 -10 -53 -22 -32 -19 -42 -20 -52 -10 -18 18 -2
40 57 80 60 41 92 39 120 -6z m651 -26 c14 -11 16 -18 8 -26 -22 -23 -252 -73
-289 -64 -25 6 -52 40 -41 51 9 10 218 51 262 52 22 1 49 -5 60 -13z m3490
-122 c49 -134 50 -141 28 -172 -25 -36 -40 -26 -59 41 -10 34 -28 93 -41 130
-12 38 -20 76 -17 85 9 26 25 43 36 39 6 -2 30 -57 53 -123z m844 -18 c4 -12
3 -30 -3 -41 -18 -35 -148 -193 -163 -199 -20 -8 -44 6 -105 60 -89 79 -118
78 -182 -8 l-37 -51 41 -44 c33 -36 38 -47 29 -59 -7 -8 -16 -14 -20 -14 -18
0 -120 103 -120 121 0 27 150 189 176 189 11 0 47 -21 80 -46 82 -64 110 -77
134 -64 18 10 90 121 90 140 0 4 -15 18 -34 29 -50 31 -61 48 -46 66 11 13 21
10 82 -22 39 -20 73 -46 78 -57z m-4209 35 c22 -18 22 -19 3 -29 -35 -18 -236
-72 -270 -72 -36 0 -83 35 -68 50 13 13 234 68 275 69 22 1 46 -6 60 -18z
m3230 -18 c6 -16 24 -75 40 -132 26 -87 29 -108 19 -131 -12 -29 -35 -44 -50
-35 -5 3 -14 31 -20 63 -6 31 -21 92 -32 135 -19 72 -19 79 -4 102 21 32 34
32 47 -2z m-3147 -69 c9 -8 16 -19 16 -24 0 -10 -203 -90 -245 -96 -35 -5 -80
15 -80 36 0 9 37 25 105 45 58 18 116 37 130 43 36 15 56 14 74 -4z m3065 -97
c32 -146 34 -165 21 -197 -17 -40 -60 -43 -60 -4 0 14 -10 80 -22 146 l-22
121 23 18 c13 10 27 17 31 14 5 -3 18 -47 29 -98z m-3705 36 c17 -20 57 -62
89 -93 31 -31 57 -65 57 -76 0 -10 -34 -51 -75 -91 l-76 -73 15 -29 c9 -16 36
-47 62 -70 52 -45 60 -45 108 9 l28 32 21 -20 20 -21 -37 -46 c-21 -25 -49
-53 -62 -61 -22 -15 -26 -14 -58 5 -18 12 -52 41 -74 65 -22 24 -56 56 -76 71
-46 35 -47 65 -4 102 71 60 118 111 118 127 0 21 -97 126 -117 126 -7 0 -32
-14 -55 -31 -40 -28 -43 -29 -55 -13 -11 16 -9 23 19 52 37 39 86 72 107 72 8
0 28 -16 45 -37z m752 -28 c19 -15 19 -15 -1 -27 -11 -7 -66 -31 -123 -54 -56
-22 -105 -44 -109 -47 -21 -22 -80 6 -71 34 4 11 241 107 269 108 8 1 24 -6
35 -14z m2826 -96 c24 -145 23 -172 -6 -206 -13 -15 -27 -25 -31 -22 -3 4 -13
73 -21 154 -15 138 -15 148 2 166 10 11 22 18 28 16 6 -2 19 -51 28 -108z
m-2704 8 c6 -5 12 -13 12 -17 0 -16 -230 -120 -264 -120 -29 0 -66 20 -66 36
0 6 191 95 235 109 40 12 59 11 83 -8z m2590 -129 c5 -131 4 -134 -20 -162
-41 -49 -48 -30 -48 134 0 142 1 150 22 164 13 10 26 12 31 7 5 -5 12 -70 15
-143z m992 116 c52 -37 70 -60 70 -90 0 -20 -187 -204 -208 -204 -8 0 -47 34
-86 75 -40 41 -78 75 -85 75 -7 0 -22 -5 -34 -11 -29 -15 -107 -90 -107 -104
0 -6 14 -28 31 -48 30 -36 31 -40 15 -55 -16 -16 -20 -13 -71 40 -30 31 -55
65 -55 76 0 13 24 39 65 71 36 28 65 56 65 61 0 5 18 22 40 36 46 31 40 33
143 -58 35 -32 68 -58 73 -58 17 0 84 53 110 87 l27 36 -42 39 c-41 40 -47 49
-34 61 13 14 34 6 83 -29z m-3441 -58 c13 -15 15 -14 -129 -101 -67 -41 -100
-55 -128 -55 -65 0 -85 41 -29 59 17 6 70 34 117 61 88 52 146 64 169 36z
m2315 -23 c3 -21 6 -83 6 -139 0 -94 -2 -103 -25 -128 -33 -35 -50 -29 -49 17
3 232 4 243 24 265 29 31 36 28 44 -15z m-127 -154 c-6 -120 -10 -145 -28
-170 -11 -16 -30 -29 -41 -29 -19 0 -20 4 -15 58 4 31 9 95 13 142 7 86 22
125 52 133 9 3 19 5 21 6 2 0 1 -62 -2 -140z m-2964 109 c48 -25 167 -142 167
-163 0 -11 -25 -50 -55 -85 -61 -72 -75 -104 -54 -125 8 -8 42 -30 77 -49 l63
-35 19 22 c10 12 27 32 37 45 12 16 24 21 36 17 22 -9 22 -27 -4 -78 -29 -57
-58 -87 -85 -87 -31 0 -228 151 -232 178 -2 14 15 40 51 80 73 79 83 98 66
128 -7 14 -37 41 -67 60 l-54 36 -38 -37 c-36 -35 -69 -43 -77 -19 -5 14 98
124 116 124 7 0 22 -5 34 -12z m887 -3 c16 -19 19 -16 -103 -99 -100 -68 -104
-70 -147 -66 -24 2 -58 25 -49 34 2 2 58 36 124 75 123 73 153 82 175 56z
m126 -55 c26 -10 26 -11 8 -32 -22 -24 -159 -130 -192 -147 -28 -15 -105 3
-100 24 3 15 225 165 244 165 7 0 25 -5 40 -10z m1826 -75 c-4 -112 -18 -194
-38 -216 -19 -21 -59 -25 -69 -9 -4 6 1 55 10 108 9 53 18 112 21 130 6 39 38
75 62 70 15 -3 17 -15 14 -83z m-1702 35 c12 -8 9 -15 -20 -45 -19 -20 -68
-63 -108 -96 -76 -61 -117 -74 -141 -45 -10 12 5 28 81 88 146 116 154 120
188 98z m1560 -20 c0 -12 -6 -53 -14 -93 -8 -40 -17 -90 -21 -112 -9 -56 -30
-85 -61 -85 -30 0 -30 -13 6 165 15 79 28 115 42 128 27 23 48 22 48 -3z
m1263 -53 c28 -26 47 -53 47 -65 0 -28 -204 -184 -235 -180 -11 2 -44 34 -75
76 -68 91 -80 98 -123 77 -46 -22 -107 -74 -107 -91 0 -8 9 -28 21 -43 12 -16
19 -37 17 -47 -6 -35 -34 -26 -72 23 -59 76 -60 111 -5 141 17 9 45 27 63 39
74 52 114 73 130 67 9 -3 39 -38 68 -78 58 -80 64 -86 95 -86 23 0 133 94 133
114 0 7 -13 25 -30 41 -32 31 -36 45 -18 63 14 14 30 5 91 -51z m-2677 22 c4
-6 -36 -53 -92 -110 -84 -84 -103 -99 -131 -99 -58 0 -50 20 38 103 118 110
165 137 185 106z m1274 -16 c0 -38 -61 -248 -77 -265 -18 -20 -63 -25 -63 -7
0 6 11 48 24 93 14 44 30 100 36 123 6 23 17 49 26 58 21 21 54 19 54 -2z
m-1122 -27 c-2 -8 -43 -60 -92 -115 -77 -87 -94 -101 -120 -101 -68 0 -65 12
40 124 92 98 102 106 137 106 28 0 38 -4 35 -14z m994 -21 c-7 -62 -73 -244
-94 -259 -26 -18 -64 -6 -61 20 3 45 82 239 103 256 33 27 56 19 52 -17z
m-146 -6 c-11 -57 -87 -234 -108 -251 -21 -19 -68 -24 -68 -8 0 5 17 49 39 97
21 48 44 105 50 125 13 41 44 68 74 68 16 0 18 -5 13 -31z m-1910 -46 c72 -46
104 -72 104 -85 0 -10 -20 -54 -45 -97 -25 -43 -45 -85 -45 -94 0 -35 129
-117 164 -104 8 3 24 24 36 47 19 38 42 51 54 31 9 -14 -41 -118 -65 -134 -23
-17 -43 -9 -214 86 -79 44 -80 59 -16 146 30 41 51 79 51 94 0 29 -41 65 -105
91 l-39 17 -34 -41 c-33 -40 -55 -49 -67 -30 -13 21 75 140 103 140 8 0 61
-30 118 -67z m1199 57 c7 -11 -114 -180 -157 -220 -17 -16 -31 -20 -53 -15
-16 3 -33 9 -38 14 -9 9 165 212 191 223 26 10 50 9 57 -2z m430 -10 c8 -14
-91 -202 -129 -245 -30 -34 -68 -46 -81 -25 -8 12 103 206 143 248 30 32 56
41 67 22z m137 -20 c-4 -34 -89 -211 -114 -237 -20 -22 -57 -30 -71 -17 -11
11 125 265 147 274 30 12 41 6 38 -20z m-432 7 c0 -14 -52 -93 -122 -184 -31
-41 -47 -53 -67 -53 -56 0 -53 13 35 125 46 60 90 113 97 117 20 13 57 9 57
-5z m150 6 c0 -5 -16 -35 -36 -67 -19 -33 -49 -85 -65 -117 -16 -32 -38 -63
-48 -69 -29 -15 -71 -13 -71 4 0 16 115 195 149 234 19 20 71 31 71 15z m1779
-172 c47 -67 50 -89 19 -118 -49 -43 -217 -135 -237 -128 -12 3 -31 30 -46 63
-40 89 -51 106 -78 121 -23 14 -30 12 -91 -19 -37 -18 -69 -37 -72 -41 -3 -5
5 -27 16 -50 41 -79 -7 -98 -54 -21 -38 62 -40 111 -6 128 167 85 212 104 228
95 9 -5 37 -44 61 -88 51 -90 57 -95 91 -87 27 6 140 75 140 85 0 3 -13 26
-29 50 -22 32 -27 47 -19 56 19 23 35 14 77 -46z m-2934 -54 c75 -39 101 -57
103 -74 2 -12 -13 -55 -32 -96 -44 -90 -45 -112 -8 -130 45 -23 144 -49 153
-40 5 5 15 26 22 48 15 43 44 57 66 31 10 -12 9 -27 -4 -77 -17 -70 -29 -89
-55 -89 -17 0 -228 73 -261 91 -27 14 -24 31 22 131 38 82 40 91 26 111 -8 13
-45 35 -83 50 -75 30 -71 31 -106 -32 -20 -36 -58 -43 -58 -11 0 56 58 141 94
139 12 0 66 -24 121 -52z m2301 -99 c9 -17 25 -56 35 -86 20 -58 44 -92 64
-92 10 0 141 65 154 76 3 2 -6 27 -19 55 -20 43 -22 52 -10 59 8 6 18 9 22 7
14 -4 88 -111 88 -127 0 -24 -30 -48 -87 -70 -26 -10 -75 -30 -106 -45 -87
-39 -96 -35 -137 67 -54 133 -58 135 -166 91 -71 -29 -69 -26 -46 -101 9 -28
8 -33 -10 -43 -25 -13 -39 4 -64 79 -23 66 -15 82 52 100 27 8 76 24 109 37
84 32 101 31 121 -7z m-2024 3 c29 -10 78 -26 109 -35 82 -24 83 -27 54 -141
-28 -112 -24 -129 33 -144 20 -5 57 -15 81 -21 40 -10 46 -10 58 6 7 10 13 28
13 40 0 35 11 54 30 54 15 0 17 -7 13 -47 -3 -27 -11 -63 -19 -80 -16 -41 -31
-42 -162 -9 -53 13 -109 27 -124 30 -36 8 -37 37 -2 133 16 44 24 82 20 96 -7
28 -55 51 -128 62 l-46 7 -17 -51 c-12 -37 -22 -51 -35 -51 -10 0 -22 4 -25
10 -7 12 20 106 40 137 19 28 38 29 107 4z m1654 -96 c14 -9 27 -38 39 -87 27
-113 30 -118 66 -118 43 0 140 31 146 47 3 7 -2 34 -11 60 -13 37 -13 48 -4
55 25 15 37 7 58 -39 32 -72 36 -109 13 -121 -25 -14 -207 -63 -255 -69 -44
-6 -51 4 -67 102 -21 119 -38 131 -154 98 l-59 -16 6 -57 c7 -57 0 -70 -33
-70 -10 0 -31 92 -31 135 0 43 14 53 86 61 32 4 82 12 109 20 65 17 67 17 91
-1z m-1242 -20 c72 -14 133 -31 138 -37 11 -18 10 -30 -9 -124 -17 -80 -17
-83 2 -104 17 -18 28 -20 99 -18 l81 3 8 54 c9 64 9 65 35 56 17 -5 22 -18 28
-72 8 -83 0 -97 -57 -101 -60 -5 -241 17 -258 31 -9 8 -11 25 -7 62 3 27 9 76
12 107 l7 58 -34 14 c-19 8 -61 16 -93 17 l-60 4 -13 -44 c-7 -25 -17 -49 -21
-53 -16 -16 -42 4 -42 31 0 39 27 123 42 132 7 5 13 9 13 9 0 0 58 -11 129
-25z m494 -57 c8 -7 12 -42 12 -106 0 -126 5 -132 115 -132 94 0 95 1 95 81 0
45 2 49 24 49 21 0 24 -6 30 -52 10 -91 8 -116 -14 -128 -12 -6 -75 -9 -162
-8 l-143 3 0 107 c0 134 -5 141 -106 146 -39 3 -75 0 -80 -5 -6 -6 -13 -32
-17 -59 -6 -40 -11 -49 -27 -49 -17 0 -20 8 -23 61 -2 33 2 73 8 88 l10 28
133 -7 c72 -4 138 -12 145 -17z m386 0 c10 -14 16 -44 16 -84 0 -33 5 -75 11
-92 14 -41 53 -48 139 -24 l65 18 -4 34 c-9 73 -7 85 14 88 17 2 25 -9 45 -69
l25 -71 -23 -18 c-13 -11 -47 -21 -80 -25 -31 -4 -70 -11 -86 -16 -16 -5 -53
-9 -81 -9 -64 0 -66 3 -75 124 -8 119 -30 134 -159 104 l-51 -11 0 -59 c0 -54
-1 -58 -24 -58 -27 0 -36 29 -36 109 0 78 4 79 167 80 115 1 123 0 137 -21z"/>
<path d="M3245 4714 c-101 -15 -225 -36 -258 -45 l-37 -10 2 -1167 3 -1166
125 -24 c180 -34 466 -36 592 -5 201 51 351 131 487 259 105 99 170 186 231
309 91 184 130 370 130 627 0 240 -30 407 -107 584 -55 127 -122 224 -227 330
-156 155 -315 241 -536 289 -73 15 -341 28 -405 19z"/>
</g>
</svg>
