<svg width="32" height="32" viewBox="0 0 32 32" fill="none" xmlns="http://www.w3.org/2000/svg">
<path d="M0 0.401367V31.5994H32V0.401367H0ZM1.333 1.73437H30.666V30.2654H1.333V1.73437ZM9.047 18.0684L7.99 22.0474C7.969 22.1564 7.922 22.1984 7.792 22.1984H5.834C5.704 22.1984 5.683 22.1514 5.704 22.0004L9.49 8.75537C9.553 8.51537 9.599 8.32337 9.62 7.66137C9.62 7.57237 9.662 7.52637 9.729 7.52637H12.526C12.615 7.52637 12.656 7.55237 12.677 7.66137L16.922 22.0204C16.943 22.1294 16.922 22.1924 16.813 22.1924H14.615C14.506 22.1924 14.438 22.1564 14.417 22.0674L13.318 18.0624H9.047V18.0684ZM12.786 15.9014C12.411 14.4274 11.505 11.1934 11.177 9.63537H11.156C10.87 11.1924 10.151 13.8334 9.599 15.9014H12.786ZM19.932 17.2664C19.958 19.0734 20.812 20.2824 22.838 20.2824C23.63 20.2824 24.307 20.1784 25.01 19.8654C25.099 19.8234 25.166 19.8494 25.166 19.9594V21.6314C25.166 21.7614 25.124 21.8294 25.031 21.8974C24.328 22.2464 23.453 22.4024 22.354 22.4024C18.833 22.4024 17.515 19.8084 17.515 16.9024C17.515 13.7564 19.14 11.1834 22.005 11.1834C24.906 11.1834 25.916 13.6264 25.916 15.6054C25.916 16.2464 25.869 16.7724 25.807 17.0164C25.781 17.1254 25.739 17.1624 25.63 17.1834C25.364 17.2304 24.573 17.2724 23.406 17.2724H19.932V17.2664ZM22.641 15.4324C23.323 15.4324 23.563 15.4324 23.631 15.4114C23.631 15.3224 23.652 15.2444 23.652 15.1824C23.652 14.4534 23.298 13.1194 21.912 13.1194C20.636 13.1194 20.084 14.2444 19.954 15.4324H22.641Z" fill="black"/>
</svg>
