<svg width="16" height="20" viewBox="0 0 16 20" fill="none" xmlns="http://www.w3.org/2000/svg">
<path d="M10 0H2C1.46957 0 0.960859 0.210714 0.585786 0.585786C0.210714 0.960859 0 1.46957 0 2V18C0 18.5304 0.210714 19.0391 0.585786 19.4142C0.960859 19.7893 1.46957 20 2 20H14C14.5304 20 15.0391 19.7893 15.4142 19.4142C15.7893 19.0391 16 18.5304 16 18V6L10 0ZM5.446 15.412C5.721 15.412 6.027 15.351 6.208 15.28L6.346 15.993C6.178 16.077 5.8 16.167 5.309 16.167C3.912 16.167 3.192 15.298 3.192 14.146C3.191 12.768 4.175 12 5.398 12C5.872 12 6.231 12.096 6.393 12.18L6.207 12.906C5.96346 12.8058 5.70236 12.7551 5.439 12.757C4.713 12.757 4.149 13.195 4.149 14.094C4.15 14.902 4.631 15.412 5.446 15.412V15.412ZM7.937 16.167C7.476 16.167 7.02 16.048 6.792 15.922L6.978 15.166C7.224 15.292 7.602 15.418 7.992 15.418C8.412 15.418 8.634 15.244 8.634 14.98C8.634 14.728 8.442 14.584 7.956 14.41C7.284 14.176 6.847 13.805 6.847 13.217C6.847 12.528 7.422 12 8.376 12C8.831 12 9.167 12.096 9.407 12.203L9.203 12.941C8.93935 12.8133 8.64996 12.7476 8.357 12.749C7.961 12.749 7.77 12.93 7.77 13.139C7.77 13.397 7.998 13.511 8.519 13.709C9.233 13.973 9.569 14.345 9.569 14.914C9.568 15.592 9.046 16.167 7.937 16.167V16.167ZM11.177 16.167C10.716 16.167 10.26 16.048 10.032 15.922L10.218 15.166C10.464 15.292 10.842 15.418 11.232 15.418C11.652 15.418 11.874 15.244 11.874 14.98C11.874 14.728 11.682 14.584 11.196 14.41C10.524 14.176 10.087 13.805 10.087 13.217C10.087 12.528 10.662 12 11.616 12C12.071 12 12.407 12.096 12.647 12.203L12.443 12.941C12.1794 12.8133 11.89 12.7476 11.597 12.749C11.201 12.749 11.01 12.93 11.01 13.139C11.01 13.397 11.238 13.511 11.759 13.709C12.473 13.973 12.809 14.345 12.809 14.914C12.809 15.592 12.286 16.167 11.177 16.167V16.167ZM10 7H9V2L14 7H10Z" fill="black"/>
</svg>
