<svg width="98" height="24" viewBox="0 0 98 24" fill="none" xmlns="http://www.w3.org/2000/svg">
<path fill-rule="evenodd" clip-rule="evenodd" d="M12 0C5.37 0 0 5.37 0 12C0 17.31 3.435 21.795 8.205 23.385C8.805 23.49 9.03 23.13 9.03 22.815C9.03 22.53 9.015 21.585 9.015 20.58C6 21.135 5.22 19.845 4.98 19.17C4.845 18.825 4.26 17.76 3.75 17.475C3.33 17.25 2.73 16.695 3.735 16.68C4.68 16.665 5.355 17.55 5.58 17.91C6.66 19.725 8.385 19.215 9.075 18.9C9.18 18.12 9.495 17.595 9.84 17.295C7.17 16.995 4.38 15.96 4.38 11.37C4.38 10.065 4.845 8.985 5.61 8.145C5.49 7.845 5.07 6.615 5.73 4.965C5.73 4.965 6.735 4.65 9.03 6.195C9.99 5.925 11.01 5.79 12.03 5.79C13.05 5.79 14.07 5.925 15.03 6.195C17.325 4.635 18.33 4.965 18.33 4.965C18.99 6.615 18.57 7.845 18.45 8.145C19.215 8.985 19.68 10.05 19.68 11.37C19.68 15.975 16.875 16.995 14.205 17.295C14.64 17.67 15.015 18.39 15.015 19.515C15.015 21.12 15 22.41 15 22.815C15 23.13 15.225 23.505 15.825 23.385C18.2072 22.5807 20.2772 21.0497 21.7437 19.0074C23.2101 16.965 23.9993 14.5143 24 12C24 5.37 18.63 0 12 0Z" fill="black"/>
<path d="M40.6864 12.1074H34.7151C34.5611 12.1074 34.436 12.2308 34.436 12.3827V15.2604C34.436 15.4123 34.5611 15.5359 34.715 15.5359H37.0446V19.1113C37.0446 19.1113 36.5215 19.2871 35.0754 19.2871C33.3693 19.2871 30.986 18.6725 30.986 13.5067C30.986 8.33979 33.4678 7.66003 35.7976 7.66003C37.8143 7.66003 38.6832 8.00996 39.236 8.17863C39.4097 8.23112 39.5705 8.06067 39.5705 7.90867L40.2365 5.12811C40.2365 5.05703 40.2121 4.97146 40.1299 4.91337C39.9054 4.75549 38.5357 4 35.0753 4C31.0892 4 27 5.67173 27 13.7082C27 21.7449 31.6816 22.9425 35.6268 22.9425C38.8932 22.9425 40.8747 21.5665 40.8747 21.5665C40.9565 21.5221 40.9652 21.4096 40.9652 21.3579V12.3827C40.9652 12.231 40.8404 12.1074 40.6865 12.1074H40.6864ZM71.4438 5.00591C71.4438 4.85281 71.3206 4.72924 71.1666 4.72924H67.8043C67.7676 4.72939 67.7313 4.73666 67.6974 4.75064C67.6636 4.76462 67.6328 4.78504 67.607 4.81073C67.5811 4.83642 67.5607 4.86688 67.5467 4.90037C67.5328 4.93386 67.5257 4.96972 67.5259 5.00591L67.5267 11.4107H62.286V5.00604C62.286 4.85295 62.1623 4.72938 62.0085 4.72938H58.6463C58.5723 4.72978 58.5014 4.75915 58.4493 4.81103C58.3972 4.86291 58.3682 4.93305 58.3685 5.00604V22.3483C58.3685 22.5014 58.4934 22.6257 58.6463 22.6257H62.0084C62.1622 22.6257 62.2858 22.5014 62.2858 22.3483V14.9303H67.5266L67.5174 22.3481C67.5174 22.5012 67.6422 22.6256 67.7959 22.6256H71.1662C71.3201 22.6256 71.4432 22.5012 71.4435 22.3481V5.00604L71.4438 5.00591ZM47.0201 7.32459C47.0201 6.13128 46.0494 5.16679 44.8519 5.16679C43.6556 5.16679 42.6842 6.13114 42.6842 7.32459C42.6842 8.51653 43.6556 9.48362 44.8519 9.48362C46.0494 9.48362 47.0201 8.51653 47.0201 7.32459V7.32459ZM46.7533 18.6989V10.6937C46.7533 10.5417 46.6289 10.4175 46.4751 10.4175H43.1235C42.9697 10.4175 42.8323 10.5739 42.8323 10.7259V22.1949C42.8323 22.532 43.0453 22.6322 43.3211 22.6322H46.3407C46.6721 22.6322 46.7533 22.4718 46.7533 22.1894V18.6989V18.6989ZM84.2939 10.4176H80.9575C80.8044 10.4176 80.6799 10.5419 80.6799 10.6948V19.1984C80.6799 19.1984 79.8323 19.8096 78.6292 19.8096C77.4262 19.8096 77.107 19.2715 77.107 18.1104V10.695C77.107 10.5419 76.9826 10.4175 76.8295 10.4175H73.4433C73.2905 10.4175 73.1653 10.5419 73.1653 10.695V18.672C73.1653 22.1207 75.1154 22.9645 77.798 22.9645C79.9987 22.9645 81.773 21.7661 81.773 21.7661C81.773 21.7661 81.8576 22.3976 81.8958 22.4725C81.934 22.5473 82.0336 22.6226 82.1412 22.6226L84.2955 22.6133C84.4483 22.6133 84.5735 22.4888 84.5735 22.3365L84.5724 10.6948C84.5724 10.5419 84.4476 10.4176 84.2939 10.4176V10.4176ZM91.9812 19.8162C90.824 19.7815 90.039 19.2638 90.039 19.2638V13.7717C90.039 13.7717 90.8135 13.3038 91.7635 13.2202C92.965 13.1141 94.1227 13.4718 94.1227 16.2971C94.1227 19.2763 93.6002 19.8642 91.9812 19.8161V19.8162ZM93.2972 10.0451C91.4023 10.0451 90.1133 10.8785 90.1133 10.8785V5.00591C90.1136 4.96978 90.1066 4.93396 90.0928 4.90049C90.079 4.86703 90.0586 4.83657 90.0329 4.81088C90.0071 4.78518 89.9764 4.76474 89.9427 4.75073C89.9089 4.73673 89.8726 4.72942 89.836 4.72924H86.4642C86.4275 4.72941 86.3912 4.73669 86.3574 4.75069C86.3235 4.76468 86.2929 4.78511 86.267 4.8108C86.2412 4.8365 86.2208 4.86695 86.207 4.90043C86.1931 4.93391 86.1861 4.96975 86.1863 5.00591V22.3481C86.1863 22.5012 86.3108 22.6256 86.4646 22.6256H88.804C88.9094 22.6256 88.9891 22.5723 89.048 22.4784C89.1061 22.3852 89.19 21.6787 89.19 21.6787C89.19 21.6787 90.5687 22.9666 93.1787 22.9666C96.2427 22.9666 98 21.4346 98 16.0891C98 10.7435 95.1936 10.045 93.2972 10.045V10.0451ZM56.4302 10.3876H53.9082L53.9043 7.10329C53.9043 6.97904 53.8394 6.91684 53.6935 6.91684H50.2567C50.123 6.91684 50.0513 6.9748 50.0513 7.10137V10.4954C50.0513 10.4954 48.329 10.9052 48.2125 10.9383C48.1544 10.9549 48.1034 10.9897 48.0671 11.0373C48.0307 11.085 48.0111 11.143 48.0111 11.2026V13.3354C48.0111 13.4888 48.1354 13.6125 48.2892 13.6125H50.0513V18.7433C50.0513 22.5543 52.7632 22.9286 54.5932 22.9286C55.4294 22.9286 56.4296 22.6639 56.5948 22.6039C56.6946 22.5676 56.7526 22.4658 56.7526 22.3551L56.7554 20.0089C56.7554 19.856 56.6243 19.7321 56.4766 19.7321C56.3297 19.7321 55.9539 19.7911 55.5667 19.7911C54.3279 19.7911 53.9082 19.2232 53.9082 18.4884L53.908 13.6126H56.4302C56.4669 13.6125 56.5033 13.6052 56.5372 13.5912C56.5711 13.5772 56.6018 13.5567 56.6276 13.5309C56.6535 13.5052 56.6739 13.4747 56.6878 13.4411C56.7016 13.4076 56.7086 13.3716 56.7084 13.3354V10.6641C56.7084 10.511 56.584 10.3877 56.4302 10.3877V10.3876Z" fill="#11110F"/>
</svg>
