<svg width="85" height="98" viewBox="0 0 85 98" fill="none" xmlns="http://www.w3.org/2000/svg">
<path d="M63.5574 0.000218564C61.3547 0.0124686 59.1763 0.547385 58.4811 1.4988C58.0365 2.17255 57.7051 6.38247 58.0365 8.51397C58.0365 8.51397 58.1658 9.92272 58.4002 11.0211C58.3748 11.269 58.3479 11.5168 58.3194 11.7643C58.2244 12.5931 58.0936 13.4174 57.9274 14.2347C57.887 14.4634 57.0907 14.6226 56.2097 14.8554C56.0254 14.7928 55.8394 14.7356 55.6519 14.6839C54.7062 14.4021 54.0959 15.1861 53.1542 15.7456C52.8753 15.5822 51.6547 15.0187 50.9878 15.4107C50.321 15.8027 49.8764 16.1988 49.2095 16.4765C48.8781 16.309 47.9889 16.3091 47.2695 16.5908C46.5436 16.8185 45.8769 17.2062 45.3174 17.726C35.965 20.0943 25.8648 24.4022 25.0605 24.835C20.9502 26.9665 14.2329 30.613 11.1815 33.1365C5.96366 37.5097 2.85562 42.618 1.63099 46.3746C0.0749529 51.0296 0.519536 53.8349 2.01899 52.0382C3.22341 50.5437 8.615 46.101 12.0221 43.8756L12.014 43.9042C12.578 43.5033 13.1727 43.1483 13.7924 42.8425L14.7341 42.3362L16.7751 41.0173C19.2082 43.2713 20.0206 46.8687 20.5622 51.7565C21.4513 59.2739 27.4492 62.7529 34.4412 62.8631C41.7162 62.9775 44.3272 64.4924 47.0472 68.1919C47.6656 69.0126 48.3325 69.4455 48.9468 69.6945C48.6709 70.2197 48.454 70.7744 48.3001 71.3483C47.997 72.0425 47.7949 72.9 47.6656 73.831C47.5994 73.9206 47.5576 74.0262 47.5443 74.1372C47.2695 76.3259 47.322 81.4872 47.2695 84.2353C47.2129 86.9834 47.1563 87.3795 46.934 87.7715C46.7117 88.2206 46.4895 88.4983 46.2146 89.6784C45.9357 90.9115 45.4346 91.2464 44.9375 92.255C44.1049 93.827 44.2706 95.5625 45.1032 96.3505C45.9357 97.1345 48.2152 98.3146 51.3192 97.9226C54.4313 97.5306 54.8759 97.306 54.3747 94.2762C54.3182 93.827 53.5987 91.8058 53.821 91.0218C54.1525 90.1806 53.433 88.7229 53.5988 88.6657C53.7645 88.6085 53.9867 87.4897 53.9867 86.9262C53.9867 86.3668 53.9302 83.6759 54.5405 82.2712C54.791 81.6995 55.3205 80.3929 55.858 79.0658C57.6445 76.1135 57.7132 74.325 57.798 73.3083C57.9193 72.4835 57.984 71.43 57.8708 70.2703C58.0931 69.9314 59.0388 69.1474 59.148 67.6325C59.148 67.6325 61.7508 66.2564 63.6019 62.9448C64.2485 65.2192 64.8548 66.6606 64.7578 68.1388C62.741 69.7313 61.9933 70.9073 61.6861 72.0547C61.4921 71.973 61.379 71.9036 61.2415 71.8914H61.1324C60.9852 71.9125 60.8413 71.9523 60.704 72.0098C59.928 72.2875 60.5383 77.3916 61.3709 79.47C62.2035 81.5444 62.648 82.7775 62.9795 85.0234C63.3149 87.2651 62.2035 90.0132 61.7589 91.2464C61.7589 91.2464 61.0354 93.435 62.7006 94.611C64.1475 95.6237 69.5876 95.346 72.0287 95.346C74.474 95.346 78.1357 96.2403 80.4677 95.7911C83.3575 95.2848 83.7981 93.5453 82.0804 92.647C80.3586 91.7486 77.7477 91.3035 74.3608 88.8372C73.4716 88.2165 72.251 87.6571 72.0853 87.1549C71.9196 86.6485 71.9196 83.733 71.9762 81.2055C72.0287 78.682 72.8654 75.4316 73.1402 73.6921C73.3989 72.067 72.833 72.1078 72.0813 72.2589C72.2106 71.6586 72.348 71.0665 72.4733 70.4377C73.8637 67.857 73.2534 65.4438 73.2534 65.4438C76.5675 61.1808 74.87 52.0913 74.1425 48.9145C76.7292 50.1517 78.0225 49.6821 78.0225 49.6821C78.4348 49.4575 78.7985 49.135 79.13 48.7675C80.492 47.2893 81.1912 45.0271 81.1912 45.0271V44.9169C84.3518 41.7196 85.8432 37.0115 82.242 33.9245C82.5361 33.0591 82.6092 32.1327 82.4545 31.2312C82.2997 30.3296 81.9222 29.4822 81.3569 28.7673C81.8458 27.5748 81.9646 26.2604 81.6976 24.9981C81.4305 23.7359 80.7902 22.5854 79.8615 21.6991C79.2976 21.1588 78.6268 20.7454 77.8932 20.4863C77.0849 19.2817 76.903 18.7836 75.5814 19.0612C74.9751 18.3875 74.862 17.8852 73.5848 18.3344C73.5848 18.3344 73.1968 17.3789 72.4733 17.1543C72.4083 17.1268 72.3405 17.1063 72.2712 17.093C71.0507 16.2355 69.9432 16.2151 69.1511 16.4397C68.8924 16.2437 68.9045 15.9334 68.8682 14.8554C68.8358 14.0387 68.7914 12.8709 68.7429 11.8174C68.852 10.4781 69.1551 7.84022 69.2521 6.4968C69.3653 4.98597 69.4219 2.6258 68.755 1.61722C67.975 0.490219 65.7561 -0.0120314 63.5574 0.000218564ZM63.5372 1.38855C66.3664 1.38855 67.587 2.28689 67.7567 2.78914C67.8092 2.90347 68.0881 4.81038 67.9184 6.04355C67.8658 6.49272 67.8092 8.12197 67.7001 8.8488C67.6435 9.57972 67.4212 10.4209 67.199 11.5969C67.0332 12.5524 66.2572 13.6181 65.647 13.7856C64.5921 14.0673 62.648 14.0101 61.5366 13.7856C61.2577 13.7284 61.0354 13.561 60.7606 13.3936C60.1503 12.3809 59.8148 11.5969 59.7057 10.3637C59.5925 9.18364 59.3702 8.68138 59.3177 7.78305C59.2611 6.43555 59.2611 5.53722 59.2611 5.53722C59.3177 4.81038 59.54 3.01372 59.54 2.8463C59.5925 2.34405 60.4817 1.38855 63.5372 1.38855V1.38855ZM58.958 12.4217C59.5481 13.0301 60.1745 13.6712 60.704 14.1204C61.2052 14.5696 62.4258 14.5124 63.5332 14.5124C64.5355 14.5124 65.4247 14.6267 65.8127 14.4021C66.4351 14.0877 67.2475 13.4426 67.9265 12.7933C67.9709 13.414 68.0154 14.0346 68.0315 14.5696C68.072 15.7741 67.8577 16.4806 68.1285 16.8971C67.7971 17.0931 67.4253 17.3258 67.0413 17.5341C66.431 17.8607 65.8046 18.0894 65.4125 18.0036H65.4045C64.5597 17.8607 61.6417 17.1257 60.025 16.3417C59.35 15.2841 58.671 14.7166 58.7074 14.5124C58.8165 13.953 58.8691 13.5038 58.9257 12.777C58.9418 12.6545 58.9459 12.5401 58.958 12.4176V12.4217ZM55.5105 15.2392L55.6519 15.2433C57.3656 15.3903 58.279 15.864 58.9176 16.403L59.2248 16.5255L59.2571 16.4152C59.447 16.5377 59.6693 16.6602 59.9118 16.7745C61.8114 17.4238 64.3738 18.0322 65.2024 18.216C66.2007 18.4405 67.8092 17.432 68.5893 16.9256C69.9756 16.0273 71.7539 16.7623 72.5865 17.7137C73.1402 18.3262 73.3625 18.7223 73.3625 18.8897C74.6397 18.4405 74.8054 19.0571 75.4157 19.7309C76.9717 19 77.0808 19.8983 77.194 20.2903C76.7009 20.2903 75.9896 20.3475 75.0196 20.4536L74.9711 20.4046C74.3891 19.7799 73.3463 19.2245 72.5501 18.8366C72.1985 18.71 71.8226 18.6365 71.5316 18.4405C71.087 18.216 70.6425 17.8811 69.9756 17.9383C67.199 18.2731 66.6452 19.2246 64.2566 18.6651C61.9246 18.118 61.2779 17.628 58.8691 17.7627L58.8731 17.8689C58.4488 17.9342 58.0648 17.9914 57.984 17.9914C57.1514 18.0404 55.0659 18.265 53.3239 17.5831C53.1146 17.4642 52.8971 17.3605 52.6732 17.2727L52.653 17.2646H52.649C51.9215 16.9787 51.0727 16.8154 50.1027 16.8072H49.9976C50.8787 16.3581 51.4365 15.7496 52.261 15.9171C53.1501 16.0845 54.0393 16.8154 54.5405 17.3748C54.3803 16.9384 54.1358 16.5386 53.821 16.1988C54.3384 15.8313 54.8112 15.2637 55.5105 15.2433V15.2392ZM51.0646 17.4646C51.6709 17.4728 52.1963 17.5708 52.75 17.7627C52.8227 17.7995 52.8874 17.8362 52.9885 17.8811C54.1525 18.4406 56.2622 18.5508 58.0405 18.4405C58.8122 18.409 59.5768 18.2786 60.316 18.0526C61.6174 18.1506 62.3934 18.5018 64.2647 18.9346C65.5176 19.2205 66.2936 19.1184 67.0737 18.9061C67.8537 18.6896 68.6337 18.3752 69.9958 18.2119C70.2502 18.1846 70.5074 18.2026 70.7556 18.265C70.9092 18.3466 71.0587 18.4283 71.2002 18.514C71.4508 18.7141 72.0651 19.0653 72.5865 19.2858C73.2493 19.5635 74.9711 20.7435 75.1934 21.0212C75.2339 21.0741 75.2866 21.1162 75.347 21.1437C76.325 22.4259 76.9919 24.2266 76.9475 26.0845C76.705 27.9629 75.2257 26.9584 74.4174 26.5745C72.7522 25.8477 71.087 25.3414 69.143 25.3414C67.203 25.3414 64.7012 25.5088 62.5349 26.0723C59.54 26.9135 58.6508 26.8563 57.3211 26.1826C55.9874 25.4557 53.6553 23.6591 53.6553 23.6591V23.6999C53.627 23.6713 53.6068 23.6509 53.5988 23.6591C53.429 23.9408 53.041 24.6676 52.8187 25.0065C52.7096 27.138 51.4324 30.5027 49.0438 31.3439C48.7366 31.459 48.4078 31.5038 48.0814 31.4748C47.755 31.4459 47.439 31.344 47.1563 31.1765C46.4639 30.7113 45.7173 30.3341 44.9334 30.0535C46.8775 31.6215 47.8798 32.8016 48.769 34.876C49.4722 36.6318 50.4463 39.0287 52.8187 41.5971C54.2858 41.5808 55.7489 41.9932 56.7068 43.01C57.2605 43.5694 58.1497 44.19 58.0405 44.7495C58.0405 44.9169 57.7051 45.366 57.4303 45.705C57.1654 46.0174 56.8862 46.3172 56.5936 46.6033C56.3754 46.7666 55.5953 47.3873 55.4296 47.5016C55.2639 47.6119 55.0416 47.8895 54.8759 47.9467C54.3182 48.2285 53.7079 48.0039 53.1542 47.7221C52.6005 47.4404 53.2633 47.3873 52.653 46.9381C51.2788 45.9581 50.4665 45.2599 50.8181 43.5408C47.0512 40.2986 40.4674 38.3958 39.0528 34.9331C38.1636 32.6873 38.0505 31.5685 38.883 30.613C41.3282 27.8077 40.3825 25.1168 42.2174 23.9408C43.9351 22.8179 45.382 24.1041 46.2146 25.2883C45.7135 23.2099 43.9917 22.7035 43.9917 22.5361C43.9917 19.9555 46.4369 18.1629 48.8821 17.7137C49.7632 17.5463 50.4543 17.4605 51.0646 17.4687V17.4646ZM43.5997 19.6451C43.0338 20.4455 42.666 21.4214 42.6054 22.5892C41.7728 22.7035 39.8854 22.8138 38.9396 26.2928C38.733 27.1629 38.4433 28.0108 38.0747 28.8245C37.6584 29.0082 26.168 34.0266 16.9408 39.2043L16.9004 39.1757C15.6071 39.9107 14.3663 40.658 13.1861 41.4052L12.6809 41.7196L12.6769 41.7319C8.08554 44.6841 4.43187 47.6527 2.01899 50.3559C3.68416 39.4166 12.2363 33.6959 16.2861 31.1724C26.0669 25.0923 34.995 22.087 43.5997 19.6451V19.6451ZM76.0825 20.964C77.1334 20.9477 78.2489 21.209 79.138 22.087C81.5226 24.443 80.8557 27.0237 80.1363 28.8163C80.7426 29.5472 82.1895 31.6215 81.3003 34.0879C81.1387 34.6514 79.914 34.6514 79.0249 36.1091C81.2478 34.8188 82.6341 35.1577 83.1353 36.7829C83.9113 39.3064 82.1895 42.3362 80.69 44.0185C80.69 43.9614 80.6335 43.9042 80.6335 43.8511C80.4112 44.6923 80.1363 46.3175 78.4712 48.1141C77.6386 49.0125 76.9717 48.8981 76.026 48.6735C75.157 48.453 74.7245 48.0937 73.8313 47.5465C73.6858 46.7013 73.4191 45.5784 73.4191 45.1374C73.4191 44.9577 73.4029 44.5616 73.3787 44.1451C73.508 43.9981 73.6454 43.843 73.8071 43.6796C73.8071 43.6796 74.5265 42.671 75.5854 42.7282C76.6363 42.7854 77.7477 42.5608 78.0266 42.279C78.0266 40.319 75.8037 40.2619 76.5837 36.8931C76.6362 36.7298 76.9151 36.444 77.8043 36.3337C76.4705 36.052 75.8643 35.9948 74.9185 35.1005L74.866 35.0475C75.3106 34.0144 75.7713 33.1814 76.0825 32.577C76.8626 31.005 76.414 29.098 76.414 29.098C77.2506 28.8163 77.97 28.3671 78.0832 28.0895C78.9036 25.3414 77.4203 22.6913 75.638 20.9845C75.7835 20.9722 75.933 20.964 76.0825 20.96V20.964ZM54.015 24.7411C54.0555 24.8065 54.0959 24.8759 54.1525 24.9453C54.8759 25.8436 56.4845 26.9665 58.6508 27.6934C59.7017 28.0323 60.5383 27.8077 61.48 27.5831C66.0188 26.448 70.792 26.1703 74.9387 28.216C75.1686 29.7011 74.9474 31.2217 74.3042 32.577C73.3665 34.4758 72.15 36.938 72.3642 41.6216C71.37 41.8013 66.6291 42.2096 64.3132 41.7727C62.2075 41.3766 58.5902 39.629 57.7657 38.9552C57.5244 37.8131 57.3556 36.6565 57.2605 35.4926C57.9624 35.1606 58.5875 34.6834 59.0954 34.092C57.4303 34.3696 56.7634 34.2553 55.761 33.6959C54.8112 33.165 53.1663 31.5195 52.2448 30.3475C53.1703 29.1634 53.8332 27.53 53.5988 25.3414C53.7483 25.1372 53.8817 24.9371 54.011 24.7411H54.015ZM36.3125 31.2663C35.9488 32.2994 36.6884 33.9368 37.2179 35.1577C39.271 39.972 45.5841 40.4252 49.8562 44.0594C49.7908 44.6 49.8747 45.1483 50.0987 45.6437C50.4341 46.3175 51.5981 47.3301 51.5981 47.3301C51.3758 47.5506 51.489 47.9998 51.489 47.9998C52.3135 48.8859 53.526 48.992 53.6998 49.0043C51.9417 54.1003 50.4018 59.7271 51.877 65.7255C51.1535 66.7219 50.3897 67.5426 49.7309 68.4532C49.0122 68.2399 48.3822 67.7955 47.9364 67.1874C45.5477 63.7084 42.0477 61.4054 35.7184 61.5769C26.2245 61.8015 22.4496 57.8733 21.7302 50.3559C21.3503 46.3787 20.2873 42.5077 18.1412 40.2333C24.2684 36.8074 32.8003 32.4096 35.5002 31.5644C35.7733 31.4754 36.0429 31.376 36.3085 31.2663H36.3125ZM50.4422 32.0013C51.9821 33.8061 53.6553 34.9699 55.2639 35.9989C55.5953 37.3995 55.7085 38.355 56.0399 40.2047H55.8742L55.7651 41.4624C54.9494 41.215 54.1089 41.0602 53.2592 41.001L53.2633 40.9887C49.6541 36.6726 50.4341 34.9862 48.9872 32.7445C49.3792 32.6056 49.8966 32.3606 50.4422 32.0013V32.0013ZM74.3325 36.4358C74.6397 36.7094 75.0519 36.9258 75.638 37.0646C74.3163 39.8413 76.9717 40.7886 77.1334 41.8421C76.5554 42.181 75.6501 41.9932 74.6962 41.9442C74.2315 41.9197 73.7707 42.2096 73.3989 42.5445L73.5282 41.0459C73.5525 39.29 73.892 37.7425 74.3365 36.4317L74.3325 36.4358ZM57.8182 40.6171C57.9152 40.76 58.5377 41.152 61.868 42.0545C66.0147 43.1774 71.2568 42.5445 72.1742 42.422C72.1593 42.5463 72.1295 42.6683 72.0853 42.7854C72.0853 44.186 72.3076 45.1945 72.4733 46.0929C72.6875 47.3505 72.9987 48.2693 73.1321 49.1145L73.1645 49.086C74.1102 54.6679 75.4318 61.879 72.0853 65.6153C72.251 66.3993 72.3642 67.5222 72.1419 68.8125C72.0015 69.5572 71.7973 70.2882 71.5316 70.9971C71.3482 71.4636 71.2022 71.9443 71.0951 72.4345C66.6493 73.0143 64.002 72.659 62.7693 72.3732C63.2664 70.846 64.4142 69.2944 66.3098 69.372C66.2209 65.652 65.2428 64.378 64.2445 61.6504C65.841 58.0448 65.453 54.8516 66.7544 50.021C65.7561 51.0868 64.976 54.9578 64.3132 57.3139C63.4806 60.7357 62.0377 64.0432 58.1497 66.681C58.1497 67.5794 57.8708 68.249 57.5394 68.6982C56.8159 69.764 55.8742 70.1029 55.5428 71.8424C55.9874 71.2789 56.5936 70.7766 56.5936 70.944C56.5792 71.6159 56.5455 72.2872 56.4926 72.9571L56.5411 72.9612C55.8742 77.2242 54.4313 79.1883 53.5422 81.5975C52.9319 83.337 53.1542 87.1508 52.9319 87.208C51.3758 87.5469 48.9912 86.9303 48.3244 86.5955C48.9791 81.9405 48.4012 77.2936 50.0865 71.8955L50.0259 71.871C50.6726 69.6088 51.9578 68.2858 53.821 65.893C53.1703 63.7696 51.6709 59.1963 54.8961 48.8165C55.0295 48.7593 55.1669 48.694 55.3205 48.6164L56.1531 48.057C56.3148 47.9426 56.5411 47.7752 56.7068 47.665C56.9857 47.4935 58.2062 46.15 58.372 45.9826C58.76 45.5865 59.0388 45.4763 59.148 45.0271C59.3702 44.186 58.1497 43.3448 57.6525 42.7813C57.5798 42.7037 57.5313 42.6425 57.4788 42.5771C57.5313 42.4179 57.5879 42.2627 57.6485 42.1116C57.6889 41.6012 57.7617 41.05 57.8182 40.613V40.6171ZM61.387 73.047C61.5891 73.0551 62.0903 73.5451 64.4223 73.6921C67.0898 73.8555 70.6425 73.3532 71.5842 73.1286C72.5299 72.904 71.9762 73.5778 71.863 74.2515L71.758 74.9416C70.1453 75.4888 67.684 75.7093 66.035 75.7665C64.4466 75.8195 62.6157 75.7175 61.3426 75.3173C61.1486 74.2556 61.088 73.3981 61.3143 73.0715C61.3241 73.0626 61.3357 73.0559 61.3482 73.0516C61.3607 73.0474 61.3739 73.0458 61.387 73.047V73.047ZM71.5155 76.5015C71.4346 77.0527 71.374 77.412 71.281 78.0205C69.7129 78.5105 67.692 78.5186 66.1481 78.5717C64.7784 78.6356 63.4059 78.5397 62.058 78.2859C62.0095 78.1388 61.965 77.9904 61.9246 77.8408C61.8331 77.4988 61.7455 77.1558 61.6619 76.8118C62.3853 76.9506 63.804 77.1344 66.3098 77.167C68.0689 77.223 69.8257 76.9984 71.5155 76.5015V76.5015ZM71.087 79.2985C70.8082 81.0952 70.8647 86.5914 71.0305 88.1063C71.087 88.5555 74.862 90.2378 76.1917 91.2505C76.6241 91.5975 77.2385 91.8915 77.8972 92.157C78.067 92.3285 78.3661 92.5857 78.6935 92.9859C79.3482 93.8556 78.9036 94.7662 78.1478 95.1337C77.0808 95.1051 75.8522 94.9214 73.8071 94.611C70.9981 94.1864 69.244 94.1986 66.815 94.1782V94.166C66.2007 93.043 66.5887 91.1933 66.5887 91.1933C65.4625 91.1598 64.3529 90.9104 63.319 90.4583L63.3675 90.3521C64.3132 88.3921 64.2566 87.9389 63.9777 84.5742C63.7878 82.214 63.1856 80.9686 62.6238 79.6946C63.3068 79.76 64.2768 79.8375 66.0875 79.862C67.7717 79.9056 69.4538 79.716 71.087 79.2985V79.2985ZM49.642 87.8082C50.6241 87.8082 52.067 87.9389 52.3741 88.2165V88.2737C52.4307 88.9475 53.041 89.903 52.8187 90.4052C52.7096 90.687 52.4307 90.2378 52.0427 90.1275C52.2084 91.1892 52.653 93.1533 53.3199 94.6682C53.7645 95.6809 53.4856 96.4077 51.9861 96.6895C50.6524 96.7466 48.9347 96.6895 47.4918 96.3505C45.8266 95.5094 45.2689 95.0602 45.6043 93.4922C45.8792 92.3693 47.6009 91.083 49.1004 90.0704C48.2678 90.1275 47.3786 90.7441 47.4918 90.0132C47.7141 88.5555 48.3244 88.6657 48.7124 87.9389C48.6315 87.8572 49.0519 87.8082 49.642 87.8082V87.8082Z" fill="black"/>
</svg>
