<svg width="102" height="26" viewBox="0 0 102 26" fill="none" xmlns="http://www.w3.org/2000/svg">
<path d="M26.4427 0.0898109C24.8122 0.869911 23.0199 3.07098 22.4538 5.83592C21.7368 9.33799 24.7201 10.8194 24.965 10.3343C25.2529 9.7637 24.4304 9.57081 24.261 7.75355C24.0422 5.40647 24.9976 2.78397 26.2 1.63325C26.4232 1.41933 26.4128 1.71704 26.4128 2.26735C26.4128 3.25157 26.3651 12.0872 26.3651 13.9312C26.3651 16.4263 26.2749 17.2142 26.1128 17.9929C25.9487 18.7817 25.6846 19.3149 25.8846 19.5203C26.1081 19.7499 27.0624 19.2035 27.6147 18.323C28.2771 17.267 28.5091 15.9984 28.5507 14.6213C28.601 12.9609 28.5988 10.3261 28.601 8.82333C28.6029 7.44514 28.6213 3.40934 28.5798 0.983111C28.5696 0.387697 27.1246 -0.236598 26.4427 0.0898109" fill="#343433"/>
<path d="M84.3394 11.7669C84.2868 13.0642 84.0353 14.078 83.7233 14.7932C83.1193 16.1778 81.866 16.6076 81.3337 14.6174C81.0437 13.5325 81.0302 11.7206 81.2385 10.2065C81.4508 8.66433 82.0436 7.49953 83.0249 7.60453C83.9929 7.70846 84.446 9.133 84.3394 11.7671V11.7669ZM68.0212 19.815C68.0081 21.9703 67.7111 23.8599 67.0743 24.409C66.1709 25.1873 64.9568 24.6033 65.2082 23.0306C65.4306 21.6388 66.4828 20.2175 68.0239 18.4808C68.0239 18.4808 68.027 18.8769 68.0212 19.815ZM67.7746 11.7543C67.7194 12.9358 67.4512 14.1225 67.1586 14.7932C66.5546 16.1778 65.2922 16.6106 64.769 14.6174C64.4113 13.2554 64.497 11.4931 64.6738 10.3825C64.9035 8.94154 65.4604 7.60471 66.4601 7.60471C67.4322 7.60471 67.9117 8.82281 67.7746 11.7543ZM58.3217 11.7364C58.2624 12.9875 58.0487 14.0334 57.7058 14.7932C57.0852 16.1683 55.8575 16.6044 55.3162 14.6174C54.9258 13.1847 55.0587 11.2312 55.221 10.1759C55.462 8.60978 56.0654 7.49953 57.0073 7.60471C57.9749 7.71274 58.4451 9.133 58.3217 11.7364V11.7364ZM101.642 13.1979C101.406 13.1979 101.298 13.4763 101.208 13.9448C100.899 15.5749 100.573 15.9427 100.153 15.9427C99.6842 15.9427 99.2628 15.1358 99.1543 13.5204C99.0692 12.25 99.0829 9.9115 99.1917 7.58528C99.2141 7.10734 99.0986 6.6344 97.9762 6.16876C97.4933 5.96839 96.7912 5.67336 96.4416 6.63707C95.4541 9.35994 95.0676 11.5216 94.9766 12.3994C94.972 12.4449 94.9231 12.4543 94.9147 12.3481C94.8566 11.6448 94.7272 10.3666 94.711 7.68154C94.7079 7.15761 94.6108 6.71177 94.1045 6.34667C93.7759 6.10958 92.7784 5.69065 92.4193 6.18926C92.1081 6.59678 91.7475 7.69384 91.3731 8.99449C91.0687 10.0516 90.8568 10.7665 90.8568 10.7665C90.8568 10.7665 90.8608 7.91454 90.8644 6.83263C90.866 6.42458 90.6209 6.28856 90.547 6.26396C90.2145 6.15379 89.559 5.96964 89.2808 5.96964C88.9375 5.96964 88.8535 6.18855 88.8535 6.50801C88.8535 6.5499 88.7993 10.2629 88.7993 12.8592C88.7993 12.972 88.7993 13.095 88.7998 13.2259C88.61 14.4192 87.9943 16.0389 87.3247 16.0389C86.6542 16.0389 86.338 15.3619 86.338 12.2666C86.338 10.4609 86.3854 9.67565 86.4087 8.36966C86.4222 7.61737 86.4485 7.03978 86.4469 6.90875C86.4419 6.50676 85.8335 6.30407 85.5502 6.22919C85.2657 6.15379 85.0185 6.12437 84.8254 6.13703C84.5521 6.15486 84.3587 6.35933 84.3587 6.64099C84.3587 6.79216 84.3603 7.07918 84.3603 7.07918C84.0083 6.44739 83.4422 6.00779 83.0656 5.88032C82.0511 5.53627 80.9925 5.84111 80.194 7.11733C79.5594 8.13113 79.1769 9.27971 79.0262 10.9296C78.9162 12.1359 78.9521 13.359 79.1478 14.3935C78.9114 15.5608 78.4726 16.0389 77.9921 16.0389C77.2944 16.0389 76.7887 14.7386 76.8474 12.4893C76.8861 11.0098 77.1453 9.97157 77.4286 8.46949C77.5494 7.82915 77.4512 7.494 77.2051 7.17277C76.9793 6.87809 76.4981 6.72745 75.8066 6.9125C75.314 7.04459 74.6097 7.18667 73.9652 7.29577C73.9652 7.29577 74.0042 7.11839 74.0361 6.80607C74.2037 5.16779 72.6449 5.3006 72.1475 5.82381C71.8508 6.13632 71.6487 6.5048 71.572 7.16724C71.4503 8.21866 72.201 8.71461 72.201 8.71461C71.9549 10.0024 71.351 11.6845 70.7276 12.9009C70.3938 13.5524 70.1384 14.0354 69.8087 14.5486C69.7979 12.4889 69.8097 10.4292 69.8439 8.36984C69.8575 7.61754 69.8839 7.05529 69.8825 6.92408C69.8787 6.6303 69.7284 6.51906 69.4158 6.37858C69.1392 6.25415 68.8124 6.16823 68.4732 6.13792C68.0453 6.10013 67.7874 6.35915 67.7943 6.66577C67.7955 6.72371 67.7955 7.07918 67.7955 7.07918C67.4436 6.44739 66.8775 6.00779 66.5009 5.88032C65.4863 5.53627 64.4278 5.84111 63.6293 7.11733C62.9948 8.13113 62.5794 9.55407 62.4615 10.9171C62.3519 12.1873 62.3721 13.2667 62.5216 14.1762C62.3604 15.0868 61.8965 16.0391 61.3722 16.0391C60.7017 16.0391 60.3203 15.3619 60.3203 12.2666C60.3203 10.4609 60.3677 9.67565 60.3911 8.36966C60.4047 7.61754 60.4308 7.03978 60.4294 6.90875C60.4244 6.50676 59.8158 6.30425 59.5325 6.22919C59.2363 6.15076 58.9805 6.12223 58.784 6.13881C58.5249 6.16074 58.3426 6.42582 58.3426 6.62352V7.07918C57.9906 6.44739 57.4245 6.00779 57.0479 5.88032C56.0334 5.53627 54.9808 5.8461 54.1763 7.11733C53.6519 7.94609 53.2272 8.86489 53.0087 10.8989C52.9455 11.4867 52.9176 12.0373 52.9213 12.5516C52.7122 14.0127 51.7882 15.6966 51.0326 15.6966C50.5904 15.6966 50.1692 14.7169 50.1692 12.6292C50.1692 9.84821 50.3199 5.88852 50.3455 5.50703C50.3455 5.50703 51.3003 5.48849 51.4851 5.486C51.9614 5.47993 52.3927 5.49295 53.0271 5.45569C53.3452 5.43733 53.6518 4.13294 53.3234 3.97161C53.1745 3.89852 52.1226 3.8347 51.7056 3.82454C51.355 3.81563 50.3789 3.73291 50.3789 3.73291C50.3789 3.73291 50.4665 1.10471 50.4869 0.827143C50.5041 0.595573 50.2419 0.47649 50.0917 0.404291C49.7262 0.227806 49.3992 0.143129 49.0117 0.0518555C48.476 -0.0743582 48.2331 0.0491815 48.1857 0.565267C48.1142 1.34875 48.0772 3.6436 48.0772 3.6436C47.6842 3.6436 46.3416 3.55589 45.9486 3.55589C45.5834 3.55589 45.1891 5.34998 45.6942 5.37208C46.2751 5.39775 47.2876 5.42021 47.9588 5.44303C47.9588 5.44303 47.9288 9.46797 47.9288 10.7108C47.9288 10.8428 47.9294 10.9702 47.93 11.0938C47.5606 13.2927 46.2595 14.4807 46.2595 14.4807C46.5389 13.0258 45.9681 11.9332 44.94 11.0084C44.5612 10.6677 43.8134 10.0226 42.9769 9.31555C42.9769 9.31555 43.4613 8.77005 43.8912 7.67263C44.1955 6.89502 44.2088 6.00565 43.4613 5.80937C42.2264 5.48493 41.2083 6.52084 40.9046 7.62681C40.6692 8.48357 40.7947 9.1191 41.2558 9.7794C41.2893 9.82771 41.326 9.87709 41.3635 9.92665C41.0849 10.5402 40.7018 11.3665 40.3775 12.0072C39.4772 13.7863 38.7972 15.1932 38.2832 15.1932C37.8724 15.1932 37.8779 13.7646 37.8779 12.427C37.8779 11.274 37.9525 9.54034 38.0121 7.74572C38.0318 7.15209 37.7718 6.81391 37.3363 6.50765C37.0716 6.32154 36.5067 5.95573 36.1796 5.95573C35.6898 5.95573 34.277 6.03185 32.9422 10.4422C32.7739 10.998 32.4434 12.011 32.4434 12.011L32.4719 6.70731C32.4719 6.58288 32.4139 6.46273 32.281 6.38054C32.0561 6.24096 31.4554 5.95573 30.9211 5.95573C30.6667 5.95573 30.5395 6.09086 30.5395 6.3604L30.493 14.6581C30.493 15.2886 30.5073 16.0241 30.562 16.3457C30.6163 16.6677 30.7045 16.9297 30.8134 17.0855C30.9225 17.2412 31.0485 17.3601 31.2562 17.4089C31.4496 17.4544 32.5084 17.6096 32.5635 17.1476C32.6294 16.5935 32.6321 15.9945 33.188 13.7601C34.0536 10.2814 35.1821 8.58429 35.7128 7.98139C35.8056 7.87621 35.9114 7.86979 35.9063 8.04218C35.8838 8.80481 35.8041 10.7108 35.7505 12.3295C35.6068 16.6623 36.2968 17.4654 37.2831 17.4654C38.0376 17.4654 39.1011 16.6092 40.2411 14.4418C40.8763 13.234 41.5086 12.0241 42.1379 10.8123C42.4833 11.1776 42.8712 11.5706 43.2586 11.9906C44.1592 12.9668 44.4548 13.8945 44.2586 14.7745C44.1087 15.4471 43.5436 16.1404 42.538 15.4667C42.2448 15.2701 42.1197 15.118 41.825 14.8964C41.6667 14.7775 41.425 14.7418 41.28 14.8666C40.9035 15.1907 40.6881 15.6032 40.5651 16.1138C40.4456 16.6106 40.8812 16.8732 41.3329 17.103C41.7217 17.3007 42.5575 17.4799 43.0903 17.5002C45.167 17.5795 46.8306 16.355 47.9887 13.1963C48.196 15.9243 49.0782 17.4679 50.611 17.4679C51.6358 17.4679 52.6633 15.955 53.1127 14.4666C53.2416 15.0732 53.4326 15.6009 53.6792 16.0471C54.8603 18.1846 57.1515 17.7246 58.3025 15.9095C58.6583 15.3487 58.7125 15.1472 58.7125 15.1472C58.8804 16.8609 60.0888 17.4597 60.7805 17.4597C61.5555 17.4597 62.3554 17.0413 62.9162 15.5995C62.9819 15.756 63.0537 15.9056 63.132 16.0471C64.3131 18.1846 66.6045 17.7246 67.7554 15.9095C67.8097 15.8243 67.8569 15.7473 67.8979 15.6778L67.9316 16.8035L66.872 17.9136C65.0958 19.7729 63.7467 21.183 63.6474 22.8254C63.521 24.9195 65.0072 25.6978 66.1331 25.7998C67.3267 25.908 68.3507 25.1543 68.9791 24.0995C69.5322 23.1709 69.8943 21.1725 69.8677 19.1989C69.8572 18.4085 69.8396 17.4036 69.826 16.3263C70.4495 15.4993 71.152 14.4539 71.7988 13.2307C72.5037 11.8974 73.2591 10.1069 73.6459 8.71336C73.6459 8.71336 74.3022 8.71995 75.0027 8.66754C75.2266 8.65079 75.2911 8.7032 75.2496 8.89056C75.1996 9.11731 74.3646 12.7955 75.1268 15.2458C75.6482 16.9233 76.824 17.4627 77.521 17.4627C78.3372 17.4627 79.1177 16.7589 79.536 15.7139C79.5866 15.8303 79.6392 15.943 79.6968 16.0473C80.8778 18.1847 83.1611 17.7218 84.3202 15.9095C84.5817 15.5006 84.7302 15.1472 84.7302 15.1472C84.9788 16.921 86.1866 17.4688 86.8783 17.4688C87.5988 17.4688 88.2827 17.1313 88.8374 15.6319C88.8608 16.2922 88.8972 16.832 88.9548 17.0021C88.9899 17.1064 89.1947 17.2369 89.3436 17.3C90.0029 17.5792 90.6749 17.4472 90.9237 17.3898C91.096 17.3499 91.2304 17.192 91.2488 16.7844C91.2972 15.7139 91.2676 13.9154 91.5516 12.5786C92.0285 10.3354 92.4734 9.46529 92.6845 9.0346C92.8026 8.79304 92.9358 8.75329 92.9406 9.00875C92.9506 9.52572 92.9731 11.0433 93.1579 13.0827C93.2936 14.5823 93.4747 15.4688 93.6141 15.7496C94.0118 16.5518 94.5026 16.5898 94.9025 16.5898C95.1569 16.5898 95.6888 16.5095 95.6412 15.999C95.618 15.7501 95.6586 14.212 96.1288 12.002C96.4358 10.5588 96.9478 9.25494 97.1324 8.77807C97.2006 8.6023 97.2323 8.74081 97.2311 8.76791C97.1922 9.76175 97.1049 13.0126 97.4594 14.7907C97.9401 17.1993 99.3302 17.4688 99.8146 17.4688C100.849 17.4688 101.695 16.5703 101.979 14.2061C102.048 13.6371 101.947 13.1979 101.642 13.1979Z" fill="#343433"/>
<path fill-rule="evenodd" clip-rule="evenodd" d="M5.70935 1.02972C6.74525 0.982033 7.07553 0.971436 9.71429 0.971436C12.353 0.971436 12.6833 0.982916 13.7183 1.02972C14.7534 1.07653 15.4598 1.24167 16.078 1.48099C16.7254 1.72562 17.3126 2.10801 17.7983 2.60255C18.2929 3.08738 18.6744 3.67377 18.9181 4.32198C19.1583 4.94016 19.3226 5.64666 19.3703 6.6799C19.418 7.71757 19.4286 8.04785 19.4286 10.6857C19.4286 13.3245 19.4171 13.6548 19.3703 14.6907C19.3235 15.7239 19.1583 16.4304 18.9181 17.0486C18.6744 17.6969 18.2922 18.2842 17.7983 18.7698C17.3126 19.2643 16.7254 19.6458 16.078 19.8896C15.4598 20.1298 14.7534 20.294 13.7201 20.3417C12.6833 20.3894 12.353 20.4 9.71429 20.4C7.07553 20.4 6.74525 20.3885 5.70935 20.3417C4.6761 20.2949 3.96961 20.1298 3.35143 19.8896C2.70315 19.6458 2.11579 19.2637 1.63023 18.7698C1.13602 18.2847 0.753577 17.6976 0.509558 17.0495C0.270234 16.4313 0.105974 15.7248 0.0582857 14.6915C0.0105974 13.6539 0 13.3236 0 10.6857C0 8.04697 0.0114805 7.71668 0.0582857 6.68167C0.105091 5.64666 0.270234 4.94016 0.509558 4.32198C0.753937 3.67385 1.13668 3.08678 1.63112 2.60167C2.11598 2.10757 2.70275 1.72513 3.35055 1.48099C3.96873 1.24167 4.67522 1.07741 5.70847 1.02972H5.70935ZM13.6397 2.77829C12.6153 2.73149 12.308 2.72177 9.71429 2.72177C7.12057 2.72177 6.81325 2.73149 5.78883 2.77829C4.84125 2.82157 4.32727 2.97964 3.98462 3.11299C3.53158 3.28962 3.20748 3.49892 2.86748 3.83892C2.54518 4.15247 2.29715 4.53418 2.14156 4.95606C2.00821 5.29871 1.85013 5.81268 1.80686 6.76027C1.76005 7.78468 1.75034 8.09201 1.75034 10.6857C1.75034 13.2794 1.76005 13.5868 1.80686 14.6112C1.85013 15.5588 2.00821 16.0727 2.14156 16.4154C2.29699 16.8366 2.54514 17.219 2.86748 17.5325C3.18099 17.8549 3.56338 18.103 3.98462 18.2584C4.32727 18.3918 4.84125 18.5499 5.78883 18.5932C6.81325 18.64 7.11969 18.6497 9.71429 18.6497C12.3089 18.6497 12.6153 18.64 13.6397 18.5932C14.5873 18.5499 15.1013 18.3918 15.4439 18.2584C15.897 18.0818 16.2211 17.8725 16.5611 17.5325C16.8834 17.219 17.1316 16.8366 17.287 16.4154C17.4204 16.0727 17.5784 15.5588 17.6217 14.6112C17.6685 13.5868 17.6782 13.2794 17.6782 10.6857C17.6782 8.09201 17.6685 7.78468 17.6217 6.76027C17.5784 5.81268 17.4204 5.29871 17.287 4.95606C17.1104 4.50302 16.9011 4.17892 16.5611 3.83892C16.2475 3.51664 15.8658 3.26861 15.4439 3.11299C15.1013 2.97964 14.5873 2.82157 13.6397 2.77829V2.77829ZM8.47351 13.6804C9.16645 13.9688 9.93805 14.0078 10.6565 13.7905C11.375 13.5733 11.9957 13.1133 12.4127 12.4893C12.8298 11.8652 13.0172 11.1157 12.943 10.3688C12.8688 9.62186 12.5376 8.92388 12.006 8.39403C11.6671 8.05534 11.2573 7.796 10.8061 7.63468C10.3549 7.47337 9.87363 7.41409 9.3968 7.46112C8.91998 7.50815 8.45951 7.66032 8.04855 7.90667C7.6376 8.15302 7.28637 8.48742 7.02016 8.8858C6.75396 9.28418 6.57939 9.73663 6.50903 10.2106C6.43867 10.6845 6.47426 11.1682 6.61326 11.6267C6.75225 12.0852 6.99118 12.5072 7.31284 12.8624C7.63451 13.2175 8.03091 13.4968 8.47351 13.6804ZM6.18358 7.15502C6.64724 6.69136 7.19769 6.32357 7.80348 6.07264C8.40928 5.82171 9.05857 5.69256 9.71429 5.69256C10.37 5.69256 11.0193 5.82171 11.6251 6.07264C12.2309 6.32357 12.7813 6.69136 13.245 7.15502C13.7086 7.61868 14.0764 8.16912 14.3274 8.77492C14.5783 9.38072 14.7075 10.03 14.7075 10.6857C14.7075 11.3414 14.5783 11.9907 14.3274 12.5965C14.0764 13.2023 13.7086 13.7528 13.245 14.2164C12.3086 15.1528 11.0386 15.6789 9.71429 15.6789C8.39002 15.6789 7.11998 15.1528 6.18358 14.2164C5.24718 13.28 4.72112 12.01 4.72112 10.6857C4.72112 9.36145 5.24718 8.09142 6.18358 7.15502V7.15502ZM15.8149 6.43616C15.9298 6.32778 16.0217 6.19744 16.0854 6.05287C16.149 5.90829 16.1829 5.75243 16.1853 5.59449C16.1876 5.43656 16.1581 5.27976 16.0988 5.1334C16.0394 4.98703 15.9512 4.85407 15.8396 4.74238C15.7279 4.63069 15.5949 4.54255 15.4485 4.48317C15.3022 4.42379 15.1454 4.39438 14.9874 4.39668C14.8295 4.39898 14.6736 4.43295 14.5291 4.49657C14.3845 4.56019 14.2542 4.65217 14.1458 4.76707C13.935 4.99053 13.8196 5.28734 13.824 5.59449C13.8285 5.90165 13.9525 6.19497 14.1697 6.41218C14.387 6.62939 14.6803 6.7534 14.9874 6.75788C15.2946 6.76236 15.5914 6.64695 15.8149 6.43616V6.43616Z" fill="black"/>
</svg>
