<svg width="20" height="21" viewBox="0 0 20 21" fill="none" xmlns="http://www.w3.org/2000/svg">
<path fill-rule="evenodd" clip-rule="evenodd" d="M5.70935 1.02972C6.74525 0.982033 7.07553 0.971436 9.71429 0.971436C12.353 0.971436 12.6833 0.982916 13.7183 1.02972C14.7534 1.07653 15.4598 1.24167 16.078 1.48099C16.7254 1.72562 17.3126 2.10801 17.7983 2.60255C18.2929 3.08738 18.6744 3.67377 18.9181 4.32198C19.1583 4.94016 19.3226 5.64666 19.3703 6.6799C19.418 7.71757 19.4286 8.04785 19.4286 10.6857C19.4286 13.3245 19.4171 13.6548 19.3703 14.6907C19.3235 15.7239 19.1583 16.4304 18.9181 17.0486C18.6744 17.6969 18.2922 18.2842 17.7983 18.7698C17.3126 19.2643 16.7254 19.6458 16.078 19.8896C15.4598 20.1298 14.7534 20.294 13.7201 20.3417C12.6833 20.3894 12.353 20.4 9.71429 20.4C7.07553 20.4 6.74525 20.3885 5.70935 20.3417C4.6761 20.2949 3.96961 20.1298 3.35143 19.8896C2.70315 19.6458 2.11579 19.2637 1.63023 18.7698C1.13602 18.2847 0.753577 17.6976 0.509558 17.0495C0.270234 16.4313 0.105974 15.7248 0.0582857 14.6915C0.0105974 13.6539 0 13.3236 0 10.6857C0 8.04697 0.0114805 7.71668 0.0582857 6.68167C0.105091 5.64666 0.270234 4.94016 0.509558 4.32198C0.753937 3.67385 1.13668 3.08678 1.63112 2.60167C2.11598 2.10757 2.70275 1.72513 3.35055 1.48099C3.96873 1.24167 4.67522 1.07741 5.70847 1.02972H5.70935ZM13.6397 2.77829C12.6153 2.73149 12.308 2.72177 9.71429 2.72177C7.12057 2.72177 6.81325 2.73149 5.78883 2.77829C4.84125 2.82157 4.32727 2.97964 3.98462 3.11299C3.53158 3.28962 3.20748 3.49892 2.86748 3.83892C2.54518 4.15247 2.29715 4.53418 2.14156 4.95606C2.00821 5.29871 1.85013 5.81268 1.80686 6.76027C1.76005 7.78468 1.75034 8.09201 1.75034 10.6857C1.75034 13.2794 1.76005 13.5868 1.80686 14.6112C1.85013 15.5588 2.00821 16.0727 2.14156 16.4154C2.29699 16.8366 2.54514 17.219 2.86748 17.5325C3.18099 17.8549 3.56338 18.103 3.98462 18.2584C4.32727 18.3918 4.84125 18.5499 5.78883 18.5932C6.81325 18.64 7.11969 18.6497 9.71429 18.6497C12.3089 18.6497 12.6153 18.64 13.6397 18.5932C14.5873 18.5499 15.1013 18.3918 15.4439 18.2584C15.897 18.0818 16.2211 17.8725 16.5611 17.5325C16.8834 17.219 17.1316 16.8366 17.287 16.4154C17.4204 16.0727 17.5784 15.5588 17.6217 14.6112C17.6685 13.5868 17.6782 13.2794 17.6782 10.6857C17.6782 8.09201 17.6685 7.78468 17.6217 6.76027C17.5784 5.81268 17.4204 5.29871 17.287 4.95606C17.1104 4.50302 16.9011 4.17892 16.5611 3.83892C16.2475 3.51664 15.8658 3.26861 15.4439 3.11299C15.1013 2.97964 14.5873 2.82157 13.6397 2.77829ZM8.47351 13.6804C9.16645 13.9688 9.93805 14.0078 10.6565 13.7905C11.375 13.5733 11.9957 13.1133 12.4127 12.4893C12.8298 11.8652 13.0172 11.1157 12.943 10.3688C12.8688 9.62187 12.5376 8.92388 12.006 8.39403C11.6671 8.05534 11.2573 7.796 10.8061 7.63468C10.3549 7.47337 9.87363 7.41409 9.3968 7.46112C8.91998 7.50815 8.45951 7.66032 8.04855 7.90667C7.6376 8.15302 7.28637 8.48742 7.02016 8.8858C6.75396 9.28418 6.57939 9.73663 6.50903 10.2106C6.43867 10.6845 6.47426 11.1682 6.61326 11.6267C6.75225 12.0852 6.99118 12.5072 7.31284 12.8624C7.63451 13.2175 8.03091 13.4968 8.47351 13.6804ZM6.18358 7.15502C6.64724 6.69136 7.19769 6.32357 7.80348 6.07264C8.40928 5.82171 9.05857 5.69256 9.71429 5.69256C10.37 5.69256 11.0193 5.82171 11.6251 6.07264C12.2309 6.32357 12.7813 6.69136 13.245 7.15502C13.7086 7.61868 14.0764 8.16912 14.3274 8.77492C14.5783 9.38072 14.7075 10.03 14.7075 10.6857C14.7075 11.3414 14.5783 11.9907 14.3274 12.5965C14.0764 13.2023 13.7086 13.7528 13.245 14.2164C12.3086 15.1528 11.0386 15.6789 9.71429 15.6789C8.39002 15.6789 7.11998 15.1528 6.18358 14.2164C5.24718 13.28 4.72112 12.01 4.72112 10.6857C4.72112 9.36145 5.24718 8.09142 6.18358 7.15502ZM15.8149 6.43616C15.9298 6.32778 16.0217 6.19744 16.0854 6.05287C16.149 5.90829 16.1829 5.75243 16.1853 5.59449C16.1876 5.43656 16.1581 5.27976 16.0988 5.1334C16.0394 4.98703 15.9512 4.85407 15.8396 4.74238C15.7279 4.63069 15.5949 4.54255 15.4485 4.48317C15.3022 4.42378 15.1454 4.39438 14.9874 4.39668C14.8295 4.39898 14.6736 4.43295 14.5291 4.49657C14.3845 4.56019 14.2542 4.65217 14.1458 4.76707C13.935 4.99053 13.8196 5.28733 13.824 5.59449C13.8285 5.90165 13.9525 6.19496 14.1697 6.41218C14.387 6.6294 14.6803 6.7534 14.9874 6.75788C15.2946 6.76236 15.5914 6.64695 15.8149 6.43616Z" fill="black"/>
</svg>
