<svg width="470" height="470" viewBox="0 0 470 470" fill="none" xmlns="http://www.w3.org/2000/svg">
<path d="M0 97.8646C0 71.9093 10.3107 47.017 28.6639 28.6639C47.017 10.3107 71.9093 0 97.8646 0H371.885C397.841 0 422.733 10.3107 441.086 28.6639C459.439 47.017 469.75 71.9093 469.75 97.8646V371.885C469.75 397.841 459.439 422.733 441.086 441.086C422.733 459.439 397.841 469.75 371.885 469.75H97.8646C71.9093 469.75 47.017 459.439 28.6639 441.086C10.3107 422.733 0 397.841 0 371.885V97.8646ZM215.302 156.583C210.111 156.583 205.133 158.645 201.462 162.316C197.791 165.987 195.729 170.965 195.729 176.156V332.74C195.729 337.931 193.667 342.909 189.996 346.58C186.326 350.25 181.347 352.312 176.156 352.312H137.01C131.819 352.312 126.841 354.375 123.17 358.045C119.5 361.716 117.437 366.694 117.437 371.885C117.437 377.076 119.5 382.055 123.17 385.726C126.841 389.396 131.819 391.458 137.01 391.458H176.156C191.729 391.458 206.665 385.272 217.677 374.26C228.689 363.248 234.875 348.313 234.875 332.74V176.156C234.875 170.965 232.813 165.987 229.142 162.316C225.472 158.645 220.493 156.583 215.302 156.583ZM254.448 215.302V234.875C254.448 250.448 260.634 265.384 271.646 276.395C282.658 287.407 297.593 293.594 313.167 293.594H332.74C337.931 293.594 342.909 295.656 346.58 299.326C350.25 302.997 352.312 307.976 352.312 313.167V332.74C352.312 337.931 350.25 342.909 346.58 346.58C342.909 350.25 337.931 352.312 332.74 352.312H274.021C268.83 352.312 263.851 354.375 260.181 358.045C256.51 361.716 254.448 366.694 254.448 371.885C254.448 377.076 256.51 382.055 260.181 385.726C263.851 389.396 268.83 391.458 274.021 391.458H332.74C348.313 391.458 363.248 385.272 374.26 374.26C385.272 363.248 391.458 348.313 391.458 332.74V313.167C391.458 297.593 385.272 282.658 374.26 271.646C363.248 260.634 348.313 254.448 332.74 254.448H313.167C307.976 254.448 302.997 252.386 299.326 248.715C295.656 245.045 293.594 240.066 293.594 234.875V215.302C293.594 210.111 295.656 205.133 299.326 201.462C302.997 197.791 307.976 195.729 313.167 195.729H371.885C377.076 195.729 382.055 193.667 385.726 189.996C389.396 186.326 391.458 181.347 391.458 176.156C391.458 170.965 389.396 165.987 385.726 162.316C382.055 158.645 377.076 156.583 371.885 156.583H313.167C297.593 156.583 282.658 162.77 271.646 173.782C260.634 184.794 254.448 199.729 254.448 215.302V215.302Z" fill="black"/>
</svg>
