<svg width="32" height="32" viewBox="0 0 32 32" fill="none" xmlns="http://www.w3.org/2000/svg">
<path d="M27.5004 5.5H18.2004L16.1004 9.7H4.40039V26.5H29.6004V5.5H27.5004ZM27.5004 9.7H19.3004L20.4004 7.6H27.5004V9.7Z" fill="#458248"/>
<path d="M26.7754 31.0003L26.2124 30.8133C26.2124 30.8133 26.2844 27.9623 25.2564 27.7633C24.5784 26.9773 25.3564 -5.79273 27.8234 27.6513C27.3551 27.8885 26.9968 28.2978 26.8234 28.7933C26.7304 29.5252 26.7143 30.2649 26.7754 31.0003V31.0003Z" fill="url(#paint0_linear_508:43)"/>
<path d="M27.0788 28.2467C28.5782 27.1175 29.7264 25.586 30.3898 23.8302C31.0533 22.0743 31.2048 20.1662 30.8268 18.3277C29.7268 13.4637 27.1158 11.8647 26.8348 11.2547C26.592 10.8746 26.3847 10.4729 26.2158 10.0547L26.4238 23.6067C26.4238 23.6067 25.9928 27.7477 27.0788 28.2467Z" fill="url(#paint1_linear_508:43)"/>
<path d="M25.925 28.427C25.925 28.427 21.334 25.3 21.6 19.769C21.6248 18.1015 22.0071 16.4588 22.7212 14.9517C23.4352 13.4446 24.4643 12.1083 25.739 11.033C25.8876 10.9061 26.0057 10.7473 26.0845 10.5685C26.1632 10.3896 26.2007 10.1953 26.194 10C26.48 10.615 26.433 19.182 26.463 20.184C26.58 24.082 26.247 27.691 25.925 28.427V28.427Z" fill="url(#paint2_linear_508:43)"/>
<defs>
<linearGradient id="paint0_linear_508:43" x1="22.9884" y1="20.6893" x2="29.4628" y2="22.8858" gradientUnits="userSpaceOnUse">
<stop offset="0.231" stop-color="#999875"/>
<stop offset="0.563" stop-color="#9B9977"/>
<stop offset="0.683" stop-color="#A09F7E"/>
<stop offset="0.768" stop-color="#A9A889"/>
<stop offset="0.837" stop-color="#B7B69A"/>
<stop offset="0.896" stop-color="#C9C7B0"/>
<stop offset="0.948" stop-color="#DEDDCB"/>
<stop offset="0.994" stop-color="#F8F6EB"/>
<stop offset="1" stop-color="#FBF9EF"/>
</linearGradient>
<linearGradient id="paint1_linear_508:43" x1="25.3624" y1="9.9579" x2="28.2248" y2="27.8295" gradientUnits="userSpaceOnUse">
<stop stop-color="#48A547"/>
<stop offset="1" stop-color="#3F9143"/>
</linearGradient>
<linearGradient id="paint2_linear_508:43" x1="21.2048" y1="20.3165" x2="28.8852" y2="17.7443" gradientUnits="userSpaceOnUse">
<stop stop-color="#41A247"/>
<stop offset="0.352" stop-color="#4BA74B"/>
<stop offset="0.956" stop-color="#67B554"/>
<stop offset="1" stop-color="#69B655"/>
</linearGradient>
</defs>
</svg>
