<svg width="256" height="289" viewBox="0 0 256 289" fill="none" xmlns="http://www.w3.org/2000/svg">
<path d="M128 288.464C124.025 288.464 120.315 287.404 116.87 285.549L81.623 264.613C76.323 261.698 78.973 260.638 80.563 260.108C87.718 257.723 89.043 257.193 96.463 252.952C97.259 252.422 98.319 252.687 99.113 253.217L126.145 269.383C127.205 269.913 128.53 269.913 129.325 269.383L235.065 208.166C236.125 207.636 236.655 206.576 236.655 205.251V83.0805C236.655 81.7555 236.125 80.6955 235.065 80.1655L129.325 19.2125C128.265 18.6825 126.94 18.6825 126.145 19.2125L20.405 80.1665C19.345 80.6965 18.815 82.0215 18.815 83.0815V205.251C18.815 206.311 19.345 207.636 20.405 208.166L49.292 224.861C64.928 232.811 74.732 223.536 74.732 214.261V93.6805C74.732 92.0905 76.058 90.5005 77.913 90.5005H91.429C93.019 90.5005 94.609 91.8255 94.609 93.6805V214.26C94.609 235.196 83.213 247.386 63.337 247.386C57.242 247.386 52.472 247.386 38.957 240.761L11.13 224.861C4.24 220.885 0 213.465 0 205.515V83.3465C0 75.3965 4.24 67.9765 11.13 64.0005L116.87 2.78348C123.495 -0.926523 132.505 -0.926523 139.13 2.78348L244.87 64.0005C251.76 67.9755 256 75.3955 256 83.3465V205.516C256 213.466 251.76 220.886 244.87 224.861L139.13 286.08C135.685 287.67 131.71 288.465 128 288.465V288.464ZM160.596 204.455C114.219 204.455 104.679 183.255 104.679 165.234C104.679 163.644 106.004 162.054 107.859 162.054H121.639C123.229 162.054 124.555 163.114 124.555 164.704C126.675 178.749 132.77 185.64 160.861 185.64C183.122 185.64 192.663 180.605 192.663 168.68C192.663 161.789 190.013 156.754 155.296 153.308C126.41 150.393 108.389 144.033 108.389 120.978C108.389 99.5115 126.409 86.7915 156.621 86.7915C190.542 86.7915 207.238 98.4515 209.358 123.892C209.358 124.687 209.093 125.482 208.563 126.277C208.033 126.807 207.238 127.337 206.443 127.337H192.663C191.337 127.337 190.013 126.277 189.747 124.952C186.567 110.377 178.352 105.607 156.621 105.607C132.241 105.607 129.325 114.087 129.325 120.447C129.325 128.133 132.77 130.517 165.631 134.757C198.228 138.997 213.598 145.093 213.598 167.884C213.333 191.205 194.253 204.455 160.596 204.455V204.455Z" fill="#539E43"/>
</svg>
