<svg width="24" height="24" viewBox="0 0 24 24" fill="none" xmlns="http://www.w3.org/2000/svg">
<path d="M13.25 10.5C13.8201 10.4999 14.369 10.7163 14.7858 11.1054C15.2025 11.4944 15.456 12.0272 15.495 12.596L15.5 12.75V19.75C15.5001 20.3201 15.2837 20.869 14.8946 21.2858C14.5056 21.7025 13.9728 21.956 13.404 21.995L13.25 22H4.25C3.67987 22.0001 3.13098 21.7837 2.71425 21.3946C2.29751 21.0056 2.04402 20.4728 2.005 19.904L2 19.75V12.75C1.99993 12.1799 2.2163 11.631 2.60537 11.2142C2.99444 10.7975 3.52721 10.544 4.096 10.505L4.25 10.5H13.25V10.5ZM21.25 10.5C21.4312 10.5 21.6063 10.5656 21.7429 10.6848C21.8795 10.8039 21.9684 10.9684 21.993 11.148L22 11.25V19.75C22.0001 20.3201 21.7837 20.869 21.3946 21.2858C21.0056 21.7025 20.4728 21.956 19.904 21.995L19.75 22H17.75C17.56 21.9999 17.3771 21.9278 17.2382 21.798C17.0994 21.6683 17.0149 21.4907 17.002 21.3011C16.989 21.1115 17.0485 20.9241 17.1684 20.7767C17.2883 20.6293 17.4598 20.5329 17.648 20.507L17.75 20.5H19.75C19.9312 20.5 20.1063 20.4344 20.2429 20.3152C20.3795 20.1961 20.4684 20.0316 20.493 19.852L20.5 19.75V11.25C20.5 11.0511 20.579 10.8603 20.7197 10.7197C20.8603 10.579 21.0511 10.5 21.25 10.5V10.5ZM13.25 12H4.25C4.06876 12 3.89366 12.0656 3.75707 12.1848C3.62048 12.3039 3.53165 12.4684 3.507 12.648L3.5 12.75V19.75C3.5 20.13 3.782 20.444 4.148 20.493L4.25 20.5H13.25C13.4312 20.5 13.6063 20.4344 13.7429 20.3152C13.8795 20.1961 13.9684 20.0316 13.993 19.852L14 19.75V12.75C14 12.5511 13.921 12.3603 13.7803 12.2197C13.6397 12.079 13.4489 12 13.25 12V12ZM10.75 17.5C10.9489 17.5 11.1397 17.579 11.2803 17.7197C11.421 17.8603 11.5 18.0511 11.5 18.25C11.5 18.63 11.16 19 10.75 19H6.75C6.55109 19 6.36032 18.921 6.21967 18.7803C6.07902 18.6397 6 18.4489 6 18.25C6 17.87 6.34 17.5 6.75 17.5H10.75ZM6 13.5C6.26522 13.5 6.51957 13.6054 6.70711 13.7929C6.89464 13.9804 7 14.2348 7 14.5C7 14.7652 6.89464 15.0196 6.70711 15.2071C6.51957 15.3946 6.26522 15.5 6 15.5C5.73478 15.5 5.48043 15.3946 5.29289 15.2071C5.10536 15.0196 5 14.7652 5 14.5C5 14.2348 5.10536 13.9804 5.29289 13.7929C5.48043 13.6054 5.73478 13.5 6 13.5ZM11.5 13.5C11.7652 13.5 12.0196 13.6054 12.2071 13.7929C12.3946 13.9804 12.5 14.2348 12.5 14.5C12.5 14.7652 12.3946 15.0196 12.2071 15.2071C12.0196 15.3946 11.7652 15.5 11.5 15.5C11.2348 15.5 10.9804 15.3946 10.7929 15.2071C10.6054 15.0196 10.5 14.7652 10.5 14.5C10.5 14.2348 10.6054 13.9804 10.7929 13.7929C10.9804 13.6054 11.2348 13.5 11.5 13.5V13.5ZM8.75 13.5C9.01522 13.5 9.26957 13.6054 9.45711 13.7929C9.64464 13.9804 9.75 14.2348 9.75 14.5C9.75 14.7652 9.64464 15.0196 9.45711 15.2071C9.26957 15.3946 9.01522 15.5 8.75 15.5C8.48478 15.5 8.23043 15.3946 8.04289 15.2071C7.85536 15.0196 7.75 14.7652 7.75 14.5C7.75 14.2348 7.85536 13.9804 8.04289 13.7929C8.23043 13.6054 8.48478 13.5 8.75 13.5V13.5ZM21.25 2C21.3628 2 21.4742 2.02528 21.576 2.074L21.619 2.097C21.6475 2.11319 21.6749 2.13123 21.701 2.151L21.781 2.22L21.832 2.277L21.842 2.291L21.877 2.339C21.9384 2.43233 21.9781 2.53828 21.993 2.649L22 2.75V7.75C21.9999 7.94002 21.9278 8.12294 21.798 8.26179C21.6683 8.40064 21.4907 8.48507 21.3011 8.49803C21.1115 8.51098 20.9241 8.45148 20.7767 8.33157C20.6293 8.21165 20.5329 8.04025 20.507 7.852L20.5 7.75V4.56L16.03 9.03C15.896 9.16296 15.7168 9.24049 15.5281 9.24714C15.3395 9.25378 15.1553 9.18904 15.0122 9.06584C14.8692 8.94264 14.7779 8.77004 14.7566 8.58248C14.7352 8.39492 14.7853 8.20621 14.897 8.054L14.97 7.97L19.438 3.5H16.25C16.0688 3.49999 15.8937 3.43436 15.7571 3.31523C15.6205 3.19611 15.5316 3.03155 15.507 2.852L15.5 2.75C15.5 2.56876 15.5656 2.39366 15.6848 2.25707C15.8039 2.12048 15.9684 2.03165 16.148 2.007L16.25 2H21.25ZM12.75 2C12.94 2.00006 13.1229 2.07224 13.2618 2.20197C13.4006 2.3317 13.4851 2.5093 13.498 2.69888C13.511 2.88846 13.4515 3.07589 13.3316 3.2233C13.2117 3.37071 13.0403 3.4671 12.852 3.493L12.75 3.5H4.25C4.06876 3.50001 3.89366 3.56564 3.75707 3.68477C3.62048 3.80389 3.53165 3.96845 3.507 4.148L3.5 4.25V8.25C3.49994 8.44002 3.42776 8.62294 3.29803 8.76179C3.1683 8.90064 2.9907 8.98507 2.80112 8.99803C2.61154 9.01098 2.42411 8.95148 2.2767 8.83157C2.12929 8.71165 2.0329 8.54025 2.007 8.352L2 8.25V4.25C1.99993 3.67987 2.2163 3.13098 2.60537 2.71425C2.99444 2.29751 3.52721 2.04402 4.096 2.005L4.25 2H12.75Z" fill="black"/>
</svg>
