<svg width="255" height="228" viewBox="0 0 255 228" fill="none" xmlns="http://www.w3.org/2000/svg">
<path d="M255 113.571C255 96.6769 233.846 80.665 201.407 70.7412C208.898 37.6869 205.573 11.3794 190.91 2.95375C187.357 0.963904 183.336 -0.0376963 179.265 0.0531249V11.6344C181.656 11.6344 183.579 12.1125 185.194 12.9944C192.259 17.0531 195.33 32.4806 192.939 52.3388C192.366 57.2263 191.431 62.3687 190.283 67.6175C179.421 64.9999 168.396 63.108 157.282 61.9544C150.661 52.8199 143.438 44.1377 135.66 35.9656C152.607 20.2194 168.513 11.5919 179.329 11.5919V0C165.028 0 146.317 10.1894 127.394 27.8587C108.481 10.3063 89.76 0.2125 75.4694 0.2125V11.7937C86.2325 11.7937 102.191 20.3787 119.138 36.0187C111.86 43.6687 104.582 52.3387 97.665 61.9544C86.5282 63.0952 75.4837 65.0052 64.6106 67.6706C63.41 62.475 62.5281 57.4388 61.9013 52.6044C59.4575 32.7356 62.475 17.3081 69.4981 13.2069C71.0494 12.2719 73.0788 11.8469 75.4694 11.8469V0.265625C71.1131 0.265625 67.15 1.20062 63.7288 3.16625C49.1194 11.5919 45.8469 37.8356 53.38 70.7944C21.0481 80.7819 0 96.73 0 113.571C0 130.464 21.1544 146.476 53.5925 156.389C46.1019 189.454 49.4275 215.762 64.09 224.177C67.4688 226.153 71.4212 227.088 75.7775 227.088C90.0787 227.088 108.789 216.899 127.713 199.229C146.625 216.792 165.336 226.876 179.637 226.876C183.739 226.962 187.791 225.958 191.377 223.964C205.987 215.549 209.259 189.306 201.726 156.347C233.952 146.423 255 130.411 255 113.571ZM187.319 78.9012C185.3 85.8485 182.96 92.6983 180.306 99.4287C175.962 90.9793 171.193 82.7556 166.016 74.7894C173.4 75.8837 180.519 77.2331 187.329 78.9012H187.319ZM163.519 134.257C159.471 141.27 155.306 147.932 150.992 154.116C135.397 155.49 119.712 155.508 104.114 154.169C95.1676 141.389 87.3432 127.859 80.7288 113.73C87.3331 99.568 95.1242 85.9903 104.019 73.1425C119.61 71.7652 135.291 71.7438 150.886 73.0787C155.199 79.2625 159.418 85.8712 163.466 92.8412C167.418 99.6412 171.009 106.547 174.282 113.518C170.973 120.572 167.382 127.491 163.519 134.257V134.257ZM180.306 127.5C183.111 134.459 185.513 141.429 187.478 148.187C180.678 149.855 173.496 151.258 166.069 152.341C171.224 144.303 175.976 136.012 180.306 127.5V127.5ZM127.606 182.962C122.772 177.969 117.937 172.412 113.156 166.324C117.831 166.536 122.612 166.696 127.447 166.696C132.334 166.696 137.169 166.589 141.897 166.324C137.222 172.412 132.388 177.969 127.606 182.962ZM88.9312 152.341C81.7673 151.303 74.6551 149.935 67.6175 148.24C69.5406 141.536 71.9313 134.619 74.63 127.713C76.7656 131.856 79.0075 136.021 81.4512 140.186C83.895 144.341 86.3812 148.399 88.9312 152.341ZM127.341 44.1787C132.175 49.1725 137.009 54.7294 141.791 60.8175C137.116 60.605 132.334 60.4456 127.5 60.4456C122.612 60.4456 117.778 60.5519 113.05 60.8175C117.725 54.7294 122.559 49.1725 127.341 44.1787ZM88.8781 74.8C83.7236 82.8212 78.9719 91.0941 74.6406 99.5881C71.9123 92.8143 69.5188 85.9103 67.4687 78.9012C74.2687 77.2862 81.4512 75.8837 88.8781 74.8ZM41.8412 139.867C23.4387 132.026 11.5387 121.731 11.5387 113.571C11.5387 105.411 23.4387 95.0619 41.8412 87.2737C46.3037 85.3506 51.1913 83.6294 56.2381 82.025C59.2025 92.2038 63.1019 102.808 67.9256 113.677C63.3714 123.9 59.5197 134.422 56.3975 145.169C51.4617 143.641 46.6037 141.872 41.8412 139.867V139.867ZM69.8063 214.136C62.7406 210.099 59.67 194.65 62.0606 174.802C62.6344 169.915 63.5694 164.762 64.7169 159.513C74.8956 162.01 86.02 163.933 97.7181 165.187C104.339 174.321 111.563 183.003 119.34 191.176C102.393 206.922 86.4875 215.549 75.6713 215.549C73.6306 215.572 71.616 215.09 69.8063 214.147V214.136ZM193.099 174.537C195.542 194.395 192.525 209.833 185.502 213.934C183.951 214.869 181.921 215.284 179.531 215.284C168.767 215.284 152.809 206.709 135.862 191.059C143.14 183.43 150.418 174.749 157.335 165.134C168.472 163.993 179.516 162.083 190.389 159.417C191.59 164.666 192.514 169.703 193.099 174.537V174.537ZM213.106 139.867C208.643 141.791 203.756 143.512 198.709 145.116C195.532 134.314 191.627 123.739 187.021 113.464C191.802 102.659 195.638 92.1081 198.549 81.9719C203.703 83.5763 208.579 85.3506 213.159 87.2737C231.561 95.115 243.461 105.411 243.461 113.571C243.408 121.731 231.508 132.079 213.106 139.867V139.867Z" fill="black"/>
<path d="M127.445 137.33C133.746 137.33 139.789 134.827 144.244 130.372C148.699 125.917 151.203 119.874 151.203 113.573C151.203 107.272 148.699 101.229 144.244 96.7738C139.789 92.3184 133.746 89.8154 127.445 89.8154C121.144 89.8154 115.101 92.3184 110.646 96.7738C106.191 101.229 103.688 107.272 103.688 113.573C103.688 119.874 106.191 125.917 110.646 130.372C115.101 134.827 121.144 137.33 127.445 137.33V137.33Z" fill="black"/>
</svg>
